G04 #@! TF.GenerationSoftware,KiCad,Pcbnew,5.1.5+dfsg1-2build2*
G04 #@! TF.CreationDate,2021-01-13T21:24:21+01:00*
G04 #@! TF.ProjectId,sony-scopeman,736f6e79-2d73-4636-9f70-656d616e2e6b,rev?*
G04 #@! TF.SameCoordinates,Original*
G04 #@! TF.FileFunction,Profile,NP*
%FSLAX46Y46*%
G04 Gerber Fmt 4.6, Leading zero omitted, Abs format (unit mm)*
G04 Created by KiCad (PCBNEW 5.1.5+dfsg1-2build2) date 2021-01-13 21:24:21*
%MOMM*%
%LPD*%
G04 APERTURE LIST*
%ADD10C,0.050000*%
G04 APERTURE END LIST*
D10*
X152000001Y-42500000D02*
G75*
G02X152500000Y-43000001I-1J-500000D01*
G01*
X151750000Y-42500000D02*
X152000000Y-42500001D01*
X143938528Y-84540191D02*
X145038524Y-82634937D01*
X146103591Y-85790192D02*
X143938528Y-84540191D01*
X147203588Y-83884934D02*
X146103591Y-85790192D01*
X145038524Y-82634937D02*
X147203588Y-83884934D01*
X142100000Y-46950000D02*
X141600000Y-46950000D01*
X141600000Y-50550000D02*
X142100000Y-50550000D01*
X141600002Y-50550000D02*
G75*
G02X141600000Y-46950000I-1J1800000D01*
G01*
X142100000Y-46950000D02*
G75*
G02X142100000Y-50550000I0J-1800000D01*
G01*
X148299999Y-48750000D02*
G75*
G03X148299999Y-48750000I-1799999J0D01*
G01*
X118177220Y-134550000D02*
G75*
G03X118177220Y-134550000I-1197023J0D01*
G01*
X150868878Y-86750000D02*
G75*
G03X150868878Y-86750000I-1068878J0D01*
G01*
X150699999Y-76250000D02*
G75*
G03X150699999Y-76250000I-899999J0D01*
G01*
X150699999Y-59450000D02*
G75*
G03X150699999Y-59450000I-899999J0D01*
G01*
X102700000Y-52450000D02*
G75*
G03X102700000Y-52450000I-900000J0D01*
G01*
X127500000Y-44950000D02*
G75*
G03X127500000Y-44950000I-1100000J0D01*
G01*
X122000000Y-143750000D02*
G75*
G02X121500000Y-144250000I-500000J0D01*
G01*
X122000000Y-141250000D02*
G75*
G02X122500000Y-140750000I500000J0D01*
G01*
X129500000Y-140750000D02*
G75*
G02X130000000Y-141250000I0J-500000D01*
G01*
X130500000Y-144250000D02*
G75*
G02X130000000Y-143750000I0J500000D01*
G01*
X153500000Y-102000000D02*
X153500000Y-143250000D01*
X153500000Y-97500000D02*
X153500000Y-102000000D01*
X152500000Y-96500000D02*
X153500000Y-97500000D01*
X152500000Y-74249999D02*
X152500000Y-96500000D01*
X147250000Y-72249999D02*
X147250000Y-62800000D01*
X151500000Y-73250000D02*
X148250000Y-73250000D01*
X151499999Y-73250000D02*
G75*
G02X152500000Y-74249999I1J-1000000D01*
G01*
X148249999Y-73250000D02*
G75*
G02X147250000Y-72249999I1J1000000D01*
G01*
X148250000Y-61800000D02*
X151500000Y-61800000D01*
X147250000Y-62800000D02*
G75*
G02X148250000Y-61800000I1000000J0D01*
G01*
X152500000Y-53350000D02*
X152500000Y-60800000D01*
X152500000Y-60800000D02*
G75*
G02X151500000Y-61800000I-1000000J0D01*
G01*
X150500000Y-53350000D02*
X152500000Y-53350000D01*
X150500000Y-52150000D02*
X150500000Y-53350000D01*
X152500000Y-52150001D02*
X150500000Y-52150000D01*
X152500000Y-45349999D02*
X152500000Y-52150001D01*
X150500000Y-45350000D02*
X152500000Y-45349999D01*
X150500000Y-44150000D02*
X150500000Y-45350000D01*
X152500000Y-44150000D02*
X150500000Y-44150000D01*
X152500000Y-43000001D02*
X152500000Y-44150000D01*
X125250000Y-42500000D02*
X151750000Y-42500000D01*
X124500000Y-43250000D02*
G75*
G02X125250000Y-42500000I750000J0D01*
G01*
X124500001Y-49500000D02*
X124500000Y-43250000D01*
X124500000Y-49500000D02*
G75*
G02X124000000Y-50000000I-500000J0D01*
G01*
X101000000Y-50000000D02*
X124000000Y-50000000D01*
X100000000Y-51000000D02*
G75*
G02X101000000Y-50000000I1000000J0D01*
G01*
X100000000Y-63250000D02*
X100000000Y-51000000D01*
X100250000Y-63500000D02*
G75*
G02X100750000Y-64000000I0J-500000D01*
G01*
X100250000Y-63500000D02*
G75*
G02X100000000Y-63250000I0J250000D01*
G01*
X100750000Y-74000000D02*
X100750000Y-64000000D01*
X100750000Y-74000000D02*
G75*
G02X100250000Y-74500000I-500000J0D01*
G01*
X100000000Y-74750000D02*
G75*
G02X100250000Y-74500000I250000J0D01*
G01*
X100000000Y-122600000D02*
X100000000Y-74750000D01*
X100250000Y-122850000D02*
G75*
G02X100000000Y-122600000I0J250000D01*
G01*
X100250000Y-122850001D02*
G75*
G02X100750000Y-123349999I1J-499999D01*
G01*
X100750000Y-128500000D02*
X100750000Y-123349999D01*
X100750000Y-138750000D02*
X100250000Y-138750000D01*
X100750000Y-133950000D02*
G75*
G02X100250000Y-134450000I-500000J0D01*
G01*
X100250000Y-138750000D02*
G75*
G02X100000000Y-138500000I0J250000D01*
G01*
X100750001Y-138750001D02*
G75*
G02X101000000Y-139000000I0J-249999D01*
G01*
X101250000Y-140250000D02*
G75*
G02X101000000Y-140000000I0J250000D01*
G01*
X101000000Y-139000000D02*
X101000000Y-140000000D01*
X100000000Y-134699999D02*
X100000000Y-138500000D01*
X100000000Y-134700000D02*
G75*
G02X100250000Y-134450000I250000J0D01*
G01*
X100750000Y-128500000D02*
X100750000Y-133950000D01*
X104500001Y-140250000D02*
X101249999Y-140250000D01*
X108500001Y-144250000D02*
X104500001Y-140250000D01*
X121500000Y-144250000D02*
X108500001Y-144250000D01*
X122000000Y-141250000D02*
X122000000Y-143750000D01*
X129500000Y-140749999D02*
X122500000Y-140750000D01*
X130000000Y-143750000D02*
X130000000Y-141250000D01*
X152500000Y-144250000D02*
X130500000Y-144250000D01*
X153500000Y-143250000D02*
G75*
G02X152500000Y-144250000I-1000000J0D01*
G01*
M02*
