G04 #@! TF.GenerationSoftware,KiCad,Pcbnew,5.1.5+dfsg1-2build2*
G04 #@! TF.CreationDate,2021-01-13T21:24:21+01:00*
G04 #@! TF.ProjectId,sony-scopeman,736f6e79-2d73-4636-9f70-656d616e2e6b,rev?*
G04 #@! TF.SameCoordinates,Original*
G04 #@! TF.FileFunction,Soldermask,Bot*
G04 #@! TF.FilePolarity,Negative*
%FSLAX46Y46*%
G04 Gerber Fmt 4.6, Leading zero omitted, Abs format (unit mm)*
G04 Created by KiCad (PCBNEW 5.1.5+dfsg1-2build2) date 2021-01-13 21:24:21*
%MOMM*%
%LPD*%
G04 APERTURE LIST*
%ADD10C,0.100000*%
G04 APERTURE END LIST*
D10*
G36*
X110761000Y-143251000D02*
G01*
X108959000Y-143251000D01*
X108959000Y-141449000D01*
X110761000Y-141449000D01*
X110761000Y-143251000D01*
G37*
G36*
X118501000Y-143251000D02*
G01*
X116699000Y-143251000D01*
X116699000Y-141449000D01*
X118501000Y-141449000D01*
X118501000Y-143251000D01*
G37*
G36*
X120253512Y-141453927D02*
G01*
X120402812Y-141483624D01*
X120566784Y-141551544D01*
X120714354Y-141650147D01*
X120839853Y-141775646D01*
X120938456Y-141923216D01*
X121006376Y-142087188D01*
X121041000Y-142261259D01*
X121041000Y-142438741D01*
X121006376Y-142612812D01*
X120938456Y-142776784D01*
X120839853Y-142924354D01*
X120714354Y-143049853D01*
X120566784Y-143148456D01*
X120402812Y-143216376D01*
X120253512Y-143246073D01*
X120228742Y-143251000D01*
X120051258Y-143251000D01*
X120026488Y-143246073D01*
X119877188Y-143216376D01*
X119713216Y-143148456D01*
X119565646Y-143049853D01*
X119440147Y-142924354D01*
X119341544Y-142776784D01*
X119273624Y-142612812D01*
X119239000Y-142438741D01*
X119239000Y-142261259D01*
X119273624Y-142087188D01*
X119341544Y-141923216D01*
X119440147Y-141775646D01*
X119565646Y-141650147D01*
X119713216Y-141551544D01*
X119877188Y-141483624D01*
X120026488Y-141453927D01*
X120051258Y-141449000D01*
X120228742Y-141449000D01*
X120253512Y-141453927D01*
G37*
G36*
X112513512Y-141453927D02*
G01*
X112662812Y-141483624D01*
X112826784Y-141551544D01*
X112974354Y-141650147D01*
X113099853Y-141775646D01*
X113198456Y-141923216D01*
X113266376Y-142087188D01*
X113301000Y-142261259D01*
X113301000Y-142438741D01*
X113266376Y-142612812D01*
X113198456Y-142776784D01*
X113099853Y-142924354D01*
X112974354Y-143049853D01*
X112826784Y-143148456D01*
X112662812Y-143216376D01*
X112513512Y-143246073D01*
X112488742Y-143251000D01*
X112311258Y-143251000D01*
X112286488Y-143246073D01*
X112137188Y-143216376D01*
X111973216Y-143148456D01*
X111825646Y-143049853D01*
X111700147Y-142924354D01*
X111601544Y-142776784D01*
X111533624Y-142612812D01*
X111499000Y-142438741D01*
X111499000Y-142261259D01*
X111533624Y-142087188D01*
X111601544Y-141923216D01*
X111700147Y-141775646D01*
X111825646Y-141650147D01*
X111973216Y-141551544D01*
X112137188Y-141483624D01*
X112286488Y-141453927D01*
X112311258Y-141449000D01*
X112488742Y-141449000D01*
X112513512Y-141453927D01*
G37*
G36*
X106438205Y-118102461D02*
G01*
X106556153Y-118125922D01*
X106648194Y-118164047D01*
X106778359Y-118217963D01*
X106978342Y-118351587D01*
X107148413Y-118521658D01*
X107282037Y-118721641D01*
X107374078Y-118943848D01*
X107421000Y-119179741D01*
X107421000Y-119420259D01*
X107374078Y-119656152D01*
X107282037Y-119878359D01*
X107148413Y-120078342D01*
X106978342Y-120248413D01*
X106778359Y-120382037D01*
X106648194Y-120435953D01*
X106556153Y-120474078D01*
X106320259Y-120521000D01*
X106079741Y-120521000D01*
X105843847Y-120474078D01*
X105751806Y-120435953D01*
X105621641Y-120382037D01*
X105421658Y-120248413D01*
X105251587Y-120078342D01*
X105117963Y-119878359D01*
X105025922Y-119656152D01*
X104979000Y-119420259D01*
X104979000Y-119179741D01*
X105025922Y-118943848D01*
X105117963Y-118721641D01*
X105251587Y-118521658D01*
X105421658Y-118351587D01*
X105621641Y-118217963D01*
X105751806Y-118164047D01*
X105843847Y-118125922D01*
X105961795Y-118102461D01*
X106079741Y-118079000D01*
X106320259Y-118079000D01*
X106438205Y-118102461D01*
G37*
G36*
X102638205Y-115602461D02*
G01*
X102756153Y-115625922D01*
X102848194Y-115664047D01*
X102978359Y-115717963D01*
X103178342Y-115851587D01*
X103348413Y-116021658D01*
X103482037Y-116221641D01*
X103574078Y-116443848D01*
X103621000Y-116679741D01*
X103621000Y-116920259D01*
X103574078Y-117156152D01*
X103482037Y-117378359D01*
X103348413Y-117578342D01*
X103178342Y-117748413D01*
X102978359Y-117882037D01*
X102848194Y-117935953D01*
X102756153Y-117974078D01*
X102520259Y-118021000D01*
X102279741Y-118021000D01*
X102043847Y-117974078D01*
X101951806Y-117935953D01*
X101821641Y-117882037D01*
X101621658Y-117748413D01*
X101451587Y-117578342D01*
X101317963Y-117378359D01*
X101225922Y-117156152D01*
X101179000Y-116920259D01*
X101179000Y-116679741D01*
X101225922Y-116443848D01*
X101317963Y-116221641D01*
X101451587Y-116021658D01*
X101621658Y-115851587D01*
X101821641Y-115717963D01*
X101951806Y-115664047D01*
X102043847Y-115625922D01*
X102161795Y-115602461D01*
X102279741Y-115579000D01*
X102520259Y-115579000D01*
X102638205Y-115602461D01*
G37*
G36*
X106438205Y-113102461D02*
G01*
X106556153Y-113125922D01*
X106644821Y-113162650D01*
X106778359Y-113217963D01*
X106978342Y-113351587D01*
X107148413Y-113521658D01*
X107282037Y-113721641D01*
X107326399Y-113828741D01*
X107374078Y-113943847D01*
X107385807Y-114002812D01*
X107421000Y-114179741D01*
X107421000Y-114420259D01*
X107374078Y-114656152D01*
X107282037Y-114878359D01*
X107148413Y-115078342D01*
X106978342Y-115248413D01*
X106778359Y-115382037D01*
X106648194Y-115435953D01*
X106556153Y-115474078D01*
X106320259Y-115521000D01*
X106079741Y-115521000D01*
X105843847Y-115474078D01*
X105751806Y-115435953D01*
X105621641Y-115382037D01*
X105421658Y-115248413D01*
X105251587Y-115078342D01*
X105117963Y-114878359D01*
X105025922Y-114656152D01*
X104979000Y-114420259D01*
X104979000Y-114179741D01*
X105014193Y-114002812D01*
X105025922Y-113943847D01*
X105073601Y-113828741D01*
X105117963Y-113721641D01*
X105251587Y-113521658D01*
X105421658Y-113351587D01*
X105621641Y-113217963D01*
X105755179Y-113162650D01*
X105843847Y-113125922D01*
X105961795Y-113102461D01*
X106079741Y-113079000D01*
X106320259Y-113079000D01*
X106438205Y-113102461D01*
G37*
G36*
X126613512Y-112843927D02*
G01*
X126762812Y-112873624D01*
X126926784Y-112941544D01*
X127074354Y-113040147D01*
X127199853Y-113165646D01*
X127298456Y-113313216D01*
X127366376Y-113477188D01*
X127401000Y-113651259D01*
X127401000Y-113828741D01*
X127366376Y-114002812D01*
X127298456Y-114166784D01*
X127199853Y-114314354D01*
X127074354Y-114439853D01*
X126926784Y-114538456D01*
X126762812Y-114606376D01*
X126613512Y-114636073D01*
X126588742Y-114641000D01*
X126411258Y-114641000D01*
X126386488Y-114636073D01*
X126237188Y-114606376D01*
X126073216Y-114538456D01*
X125925646Y-114439853D01*
X125800147Y-114314354D01*
X125701544Y-114166784D01*
X125633624Y-114002812D01*
X125599000Y-113828741D01*
X125599000Y-113651259D01*
X125633624Y-113477188D01*
X125701544Y-113313216D01*
X125800147Y-113165646D01*
X125925646Y-113040147D01*
X126073216Y-112941544D01*
X126237188Y-112873624D01*
X126386488Y-112843927D01*
X126411258Y-112839000D01*
X126588742Y-112839000D01*
X126613512Y-112843927D01*
G37*
G36*
X115313512Y-112843927D02*
G01*
X115462812Y-112873624D01*
X115626784Y-112941544D01*
X115774354Y-113040147D01*
X115899853Y-113165646D01*
X115998456Y-113313216D01*
X116066376Y-113477188D01*
X116101000Y-113651259D01*
X116101000Y-113828741D01*
X116066376Y-114002812D01*
X115998456Y-114166784D01*
X115899853Y-114314354D01*
X115774354Y-114439853D01*
X115626784Y-114538456D01*
X115462812Y-114606376D01*
X115313512Y-114636073D01*
X115288742Y-114641000D01*
X115111258Y-114641000D01*
X115086488Y-114636073D01*
X114937188Y-114606376D01*
X114773216Y-114538456D01*
X114625646Y-114439853D01*
X114500147Y-114314354D01*
X114401544Y-114166784D01*
X114333624Y-114002812D01*
X114299000Y-113828741D01*
X114299000Y-113651259D01*
X114333624Y-113477188D01*
X114401544Y-113313216D01*
X114500147Y-113165646D01*
X114625646Y-113040147D01*
X114773216Y-112941544D01*
X114937188Y-112873624D01*
X115086488Y-112843927D01*
X115111258Y-112839000D01*
X115288742Y-112839000D01*
X115313512Y-112843927D01*
G37*
G36*
X118313512Y-112843927D02*
G01*
X118462812Y-112873624D01*
X118626784Y-112941544D01*
X118774354Y-113040147D01*
X118899853Y-113165646D01*
X118998456Y-113313216D01*
X119066376Y-113477188D01*
X119101000Y-113651259D01*
X119101000Y-113828741D01*
X119066376Y-114002812D01*
X118998456Y-114166784D01*
X118899853Y-114314354D01*
X118774354Y-114439853D01*
X118626784Y-114538456D01*
X118462812Y-114606376D01*
X118313512Y-114636073D01*
X118288742Y-114641000D01*
X118111258Y-114641000D01*
X118086488Y-114636073D01*
X117937188Y-114606376D01*
X117773216Y-114538456D01*
X117625646Y-114439853D01*
X117500147Y-114314354D01*
X117401544Y-114166784D01*
X117333624Y-114002812D01*
X117299000Y-113828741D01*
X117299000Y-113651259D01*
X117333624Y-113477188D01*
X117401544Y-113313216D01*
X117500147Y-113165646D01*
X117625646Y-113040147D01*
X117773216Y-112941544D01*
X117937188Y-112873624D01*
X118086488Y-112843927D01*
X118111258Y-112839000D01*
X118288742Y-112839000D01*
X118313512Y-112843927D01*
G37*
G36*
X122513512Y-112843927D02*
G01*
X122662812Y-112873624D01*
X122826784Y-112941544D01*
X122974354Y-113040147D01*
X123099853Y-113165646D01*
X123198456Y-113313216D01*
X123266376Y-113477188D01*
X123301000Y-113651259D01*
X123301000Y-113828741D01*
X123266376Y-114002812D01*
X123198456Y-114166784D01*
X123099853Y-114314354D01*
X122974354Y-114439853D01*
X122826784Y-114538456D01*
X122662812Y-114606376D01*
X122513512Y-114636073D01*
X122488742Y-114641000D01*
X122311258Y-114641000D01*
X122286488Y-114636073D01*
X122137188Y-114606376D01*
X121973216Y-114538456D01*
X121825646Y-114439853D01*
X121700147Y-114314354D01*
X121601544Y-114166784D01*
X121533624Y-114002812D01*
X121499000Y-113828741D01*
X121499000Y-113651259D01*
X121533624Y-113477188D01*
X121601544Y-113313216D01*
X121700147Y-113165646D01*
X121825646Y-113040147D01*
X121973216Y-112941544D01*
X122137188Y-112873624D01*
X122286488Y-112843927D01*
X122311258Y-112839000D01*
X122488742Y-112839000D01*
X122513512Y-112843927D01*
G37*
G36*
X152938213Y-112476249D02*
G01*
X153032652Y-112504897D01*
X153119687Y-112551418D01*
X153195975Y-112614025D01*
X153258582Y-112690313D01*
X153305103Y-112777348D01*
X153333751Y-112871787D01*
X153343424Y-112970000D01*
X153333751Y-113068213D01*
X153305103Y-113162652D01*
X153258582Y-113249687D01*
X153195975Y-113325975D01*
X153119687Y-113388582D01*
X153032652Y-113435103D01*
X152938213Y-113463751D01*
X152864612Y-113471000D01*
X152015388Y-113471000D01*
X151941787Y-113463751D01*
X151847348Y-113435103D01*
X151760313Y-113388582D01*
X151684025Y-113325975D01*
X151621418Y-113249687D01*
X151574897Y-113162652D01*
X151546249Y-113068213D01*
X151536576Y-112970000D01*
X151546249Y-112871787D01*
X151574897Y-112777348D01*
X151621418Y-112690313D01*
X151684025Y-112614025D01*
X151760313Y-112551418D01*
X151847348Y-112504897D01*
X151941787Y-112476249D01*
X152015388Y-112469000D01*
X152864612Y-112469000D01*
X152938213Y-112476249D01*
G37*
G36*
X148918213Y-112476249D02*
G01*
X149012652Y-112504897D01*
X149099687Y-112551418D01*
X149175975Y-112614025D01*
X149238582Y-112690313D01*
X149285103Y-112777348D01*
X149313751Y-112871787D01*
X149323424Y-112970000D01*
X149313751Y-113068213D01*
X149285103Y-113162652D01*
X149238582Y-113249687D01*
X149175975Y-113325975D01*
X149099687Y-113388582D01*
X149012652Y-113435103D01*
X148918213Y-113463751D01*
X148844612Y-113471000D01*
X147695388Y-113471000D01*
X147621787Y-113463751D01*
X147527348Y-113435103D01*
X147440313Y-113388582D01*
X147364025Y-113325975D01*
X147301418Y-113249687D01*
X147254897Y-113162652D01*
X147226249Y-113068213D01*
X147216576Y-112970000D01*
X147226249Y-112871787D01*
X147254897Y-112777348D01*
X147301418Y-112690313D01*
X147364025Y-112614025D01*
X147440313Y-112551418D01*
X147527348Y-112504897D01*
X147621787Y-112476249D01*
X147695388Y-112469000D01*
X148844612Y-112469000D01*
X148918213Y-112476249D01*
G37*
G36*
X116101000Y-112101000D02*
G01*
X114299000Y-112101000D01*
X114299000Y-110299000D01*
X116101000Y-110299000D01*
X116101000Y-112101000D01*
G37*
G36*
X123301000Y-112101000D02*
G01*
X121499000Y-112101000D01*
X121499000Y-110299000D01*
X123301000Y-110299000D01*
X123301000Y-112101000D01*
G37*
G36*
X119101000Y-112101000D02*
G01*
X117299000Y-112101000D01*
X117299000Y-110299000D01*
X119101000Y-110299000D01*
X119101000Y-112101000D01*
G37*
G36*
X126613512Y-110303927D02*
G01*
X126762812Y-110333624D01*
X126926784Y-110401544D01*
X127074354Y-110500147D01*
X127199853Y-110625646D01*
X127298456Y-110773216D01*
X127366376Y-110937188D01*
X127401000Y-111111259D01*
X127401000Y-111288741D01*
X127366376Y-111462812D01*
X127298456Y-111626784D01*
X127199853Y-111774354D01*
X127074354Y-111899853D01*
X126926784Y-111998456D01*
X126762812Y-112066376D01*
X126613512Y-112096073D01*
X126588742Y-112101000D01*
X126411258Y-112101000D01*
X126386488Y-112096073D01*
X126237188Y-112066376D01*
X126073216Y-111998456D01*
X125925646Y-111899853D01*
X125800147Y-111774354D01*
X125701544Y-111626784D01*
X125633624Y-111462812D01*
X125599000Y-111288741D01*
X125599000Y-111111259D01*
X125633624Y-110937188D01*
X125701544Y-110773216D01*
X125800147Y-110625646D01*
X125925646Y-110500147D01*
X126073216Y-110401544D01*
X126237188Y-110333624D01*
X126386488Y-110303927D01*
X126411258Y-110299000D01*
X126588742Y-110299000D01*
X126613512Y-110303927D01*
G37*
G36*
X148852383Y-111202489D02*
G01*
X148852386Y-111202490D01*
X148852385Y-111202490D01*
X148916258Y-111228946D01*
X148973748Y-111267360D01*
X149022640Y-111316252D01*
X149061054Y-111373742D01*
X149082624Y-111425818D01*
X149087511Y-111437617D01*
X149101000Y-111505430D01*
X149101000Y-111574570D01*
X149087511Y-111642383D01*
X149087510Y-111642385D01*
X149061054Y-111706258D01*
X149022640Y-111763748D01*
X148973748Y-111812640D01*
X148916258Y-111851054D01*
X148864182Y-111872624D01*
X148852383Y-111877511D01*
X148784570Y-111891000D01*
X148715430Y-111891000D01*
X148647617Y-111877511D01*
X148635818Y-111872624D01*
X148583742Y-111851054D01*
X148526252Y-111812640D01*
X148477360Y-111763748D01*
X148438946Y-111706258D01*
X148412490Y-111642385D01*
X148412489Y-111642383D01*
X148399000Y-111574570D01*
X148399000Y-111505430D01*
X148412489Y-111437617D01*
X148417376Y-111425818D01*
X148438946Y-111373742D01*
X148477360Y-111316252D01*
X148526252Y-111267360D01*
X148583742Y-111228946D01*
X148647615Y-111202490D01*
X148647614Y-111202490D01*
X148647617Y-111202489D01*
X148715430Y-111189000D01*
X148784570Y-111189000D01*
X148852383Y-111202489D01*
G37*
G36*
X127401000Y-109561000D02*
G01*
X125599000Y-109561000D01*
X125599000Y-107759000D01*
X127401000Y-107759000D01*
X127401000Y-109561000D01*
G37*
G36*
X106556153Y-106425922D02*
G01*
X106648194Y-106464047D01*
X106778359Y-106517963D01*
X106978342Y-106651587D01*
X107148413Y-106821658D01*
X107282037Y-107021641D01*
X107374078Y-107243848D01*
X107421000Y-107479741D01*
X107421000Y-107720259D01*
X107374078Y-107956152D01*
X107282037Y-108178359D01*
X107148413Y-108378342D01*
X106978342Y-108548413D01*
X106778359Y-108682037D01*
X106648194Y-108735953D01*
X106556153Y-108774078D01*
X106438205Y-108797539D01*
X106320259Y-108821000D01*
X106079741Y-108821000D01*
X105961795Y-108797539D01*
X105843847Y-108774078D01*
X105751806Y-108735953D01*
X105621641Y-108682037D01*
X105421658Y-108548413D01*
X105251587Y-108378342D01*
X105117963Y-108178359D01*
X105025922Y-107956152D01*
X104979000Y-107720259D01*
X104979000Y-107479741D01*
X105025922Y-107243848D01*
X105117963Y-107021641D01*
X105251587Y-106821658D01*
X105421658Y-106651587D01*
X105621641Y-106517963D01*
X105751806Y-106464047D01*
X105843847Y-106425922D01*
X106079741Y-106379000D01*
X106320259Y-106379000D01*
X106556153Y-106425922D01*
G37*
G36*
X102638205Y-103902461D02*
G01*
X102756153Y-103925922D01*
X102848194Y-103964047D01*
X102978359Y-104017963D01*
X103178342Y-104151587D01*
X103348413Y-104321658D01*
X103482037Y-104521641D01*
X103518507Y-104609687D01*
X103574078Y-104743847D01*
X103621000Y-104979742D01*
X103621000Y-105220258D01*
X103574078Y-105456153D01*
X103561151Y-105487361D01*
X103482037Y-105678359D01*
X103348413Y-105878342D01*
X103178342Y-106048413D01*
X102978359Y-106182037D01*
X102848194Y-106235953D01*
X102756153Y-106274078D01*
X102638205Y-106297539D01*
X102520259Y-106321000D01*
X102279741Y-106321000D01*
X102161795Y-106297539D01*
X102043847Y-106274078D01*
X101951806Y-106235953D01*
X101821641Y-106182037D01*
X101621658Y-106048413D01*
X101451587Y-105878342D01*
X101317963Y-105678359D01*
X101238849Y-105487361D01*
X101225922Y-105456153D01*
X101179000Y-105220258D01*
X101179000Y-104979742D01*
X101225922Y-104743847D01*
X101281493Y-104609687D01*
X101317963Y-104521641D01*
X101451587Y-104321658D01*
X101621658Y-104151587D01*
X101821641Y-104017963D01*
X101951806Y-103964047D01*
X102043847Y-103925922D01*
X102279741Y-103879000D01*
X102520259Y-103879000D01*
X102638205Y-103902461D01*
G37*
G36*
X148852383Y-105422489D02*
G01*
X148852386Y-105422490D01*
X148852385Y-105422490D01*
X148916258Y-105448946D01*
X148973748Y-105487360D01*
X149022640Y-105536252D01*
X149061054Y-105593742D01*
X149082624Y-105645818D01*
X149087511Y-105657617D01*
X149101000Y-105725430D01*
X149101000Y-105794570D01*
X149087511Y-105862383D01*
X149087510Y-105862385D01*
X149061054Y-105926258D01*
X149022640Y-105983748D01*
X148973748Y-106032640D01*
X148916258Y-106071054D01*
X148864182Y-106092624D01*
X148852383Y-106097511D01*
X148784570Y-106111000D01*
X148715430Y-106111000D01*
X148647617Y-106097511D01*
X148635818Y-106092624D01*
X148583742Y-106071054D01*
X148526252Y-106032640D01*
X148477360Y-105983748D01*
X148438946Y-105926258D01*
X148412490Y-105862385D01*
X148412489Y-105862383D01*
X148399000Y-105794570D01*
X148399000Y-105725430D01*
X148412489Y-105657617D01*
X148417376Y-105645818D01*
X148438946Y-105593742D01*
X148477360Y-105536252D01*
X148526252Y-105487360D01*
X148583742Y-105448946D01*
X148647615Y-105422490D01*
X148647614Y-105422490D01*
X148647617Y-105422489D01*
X148715430Y-105409000D01*
X148784570Y-105409000D01*
X148852383Y-105422489D01*
G37*
G36*
X152938213Y-103836249D02*
G01*
X153032652Y-103864897D01*
X153119687Y-103911418D01*
X153195975Y-103974025D01*
X153258582Y-104050313D01*
X153305103Y-104137348D01*
X153333751Y-104231787D01*
X153343424Y-104330000D01*
X153333751Y-104428213D01*
X153305103Y-104522652D01*
X153258582Y-104609687D01*
X153195975Y-104685975D01*
X153119687Y-104748582D01*
X153032652Y-104795103D01*
X152938213Y-104823751D01*
X152864612Y-104831000D01*
X152015388Y-104831000D01*
X151941787Y-104823751D01*
X151847348Y-104795103D01*
X151760313Y-104748582D01*
X151684025Y-104685975D01*
X151621418Y-104609687D01*
X151574897Y-104522652D01*
X151546249Y-104428213D01*
X151536576Y-104330000D01*
X151546249Y-104231787D01*
X151574897Y-104137348D01*
X151621418Y-104050313D01*
X151684025Y-103974025D01*
X151760313Y-103911418D01*
X151847348Y-103864897D01*
X151941787Y-103836249D01*
X152015388Y-103829000D01*
X152864612Y-103829000D01*
X152938213Y-103836249D01*
G37*
G36*
X148918213Y-103836249D02*
G01*
X149012652Y-103864897D01*
X149099687Y-103911418D01*
X149175975Y-103974025D01*
X149238582Y-104050313D01*
X149285103Y-104137348D01*
X149313751Y-104231787D01*
X149323424Y-104330000D01*
X149313751Y-104428213D01*
X149285103Y-104522652D01*
X149238582Y-104609687D01*
X149175975Y-104685975D01*
X149099687Y-104748582D01*
X149012652Y-104795103D01*
X148918213Y-104823751D01*
X148844612Y-104831000D01*
X147695388Y-104831000D01*
X147621787Y-104823751D01*
X147527348Y-104795103D01*
X147440313Y-104748582D01*
X147364025Y-104685975D01*
X147301418Y-104609687D01*
X147254897Y-104522652D01*
X147226249Y-104428213D01*
X147216576Y-104330000D01*
X147226249Y-104231787D01*
X147254897Y-104137348D01*
X147301418Y-104050313D01*
X147364025Y-103974025D01*
X147440313Y-103911418D01*
X147527348Y-103864897D01*
X147621787Y-103836249D01*
X147695388Y-103829000D01*
X148844612Y-103829000D01*
X148918213Y-103836249D01*
G37*
G36*
X106556153Y-101425922D02*
G01*
X106648194Y-101464047D01*
X106778359Y-101517963D01*
X106978342Y-101651587D01*
X107148413Y-101821658D01*
X107282037Y-102021641D01*
X107374078Y-102243848D01*
X107421000Y-102479741D01*
X107421000Y-102720259D01*
X107374078Y-102956152D01*
X107282037Y-103178359D01*
X107148413Y-103378342D01*
X106978342Y-103548413D01*
X106778359Y-103682037D01*
X106648194Y-103735953D01*
X106556153Y-103774078D01*
X106320259Y-103821000D01*
X106079741Y-103821000D01*
X105843847Y-103774078D01*
X105751806Y-103735953D01*
X105621641Y-103682037D01*
X105421658Y-103548413D01*
X105251587Y-103378342D01*
X105117963Y-103178359D01*
X105025922Y-102956152D01*
X104979000Y-102720259D01*
X104979000Y-102479741D01*
X105025922Y-102243848D01*
X105117963Y-102021641D01*
X105251587Y-101821658D01*
X105421658Y-101651587D01*
X105621641Y-101517963D01*
X105751806Y-101464047D01*
X105843847Y-101425922D01*
X106079741Y-101379000D01*
X106320259Y-101379000D01*
X106556153Y-101425922D01*
G37*
G36*
X130113512Y-92653927D02*
G01*
X130262812Y-92683624D01*
X130426784Y-92751544D01*
X130574354Y-92850147D01*
X130699853Y-92975646D01*
X130798456Y-93123216D01*
X130866376Y-93287188D01*
X130877405Y-93342638D01*
X130884516Y-93366078D01*
X130896067Y-93387689D01*
X130911613Y-93406631D01*
X130930555Y-93422176D01*
X130952165Y-93433727D01*
X130975614Y-93440840D01*
X131000000Y-93443242D01*
X131024387Y-93440840D01*
X131047835Y-93433727D01*
X131069446Y-93422176D01*
X131088388Y-93406630D01*
X131103933Y-93387688D01*
X131115484Y-93366078D01*
X131122595Y-93342638D01*
X131133624Y-93287188D01*
X131201544Y-93123216D01*
X131300147Y-92975646D01*
X131425646Y-92850147D01*
X131573216Y-92751544D01*
X131737188Y-92683624D01*
X131886488Y-92653927D01*
X131911258Y-92649000D01*
X132088742Y-92649000D01*
X132113512Y-92653927D01*
X132262812Y-92683624D01*
X132426784Y-92751544D01*
X132574354Y-92850147D01*
X132699853Y-92975646D01*
X132798456Y-93123216D01*
X132866376Y-93287188D01*
X132877405Y-93342638D01*
X132884516Y-93366078D01*
X132896067Y-93387689D01*
X132911613Y-93406631D01*
X132930555Y-93422176D01*
X132952165Y-93433727D01*
X132975614Y-93440840D01*
X133000000Y-93443242D01*
X133024387Y-93440840D01*
X133047835Y-93433727D01*
X133069446Y-93422176D01*
X133088388Y-93406630D01*
X133103933Y-93387688D01*
X133115484Y-93366078D01*
X133122595Y-93342638D01*
X133133624Y-93287188D01*
X133201544Y-93123216D01*
X133300147Y-92975646D01*
X133425646Y-92850147D01*
X133573216Y-92751544D01*
X133737188Y-92683624D01*
X133886488Y-92653927D01*
X133911258Y-92649000D01*
X134088742Y-92649000D01*
X134113512Y-92653927D01*
X134262812Y-92683624D01*
X134426784Y-92751544D01*
X134574354Y-92850147D01*
X134699853Y-92975646D01*
X134798456Y-93123216D01*
X134866376Y-93287188D01*
X134877405Y-93342638D01*
X134884516Y-93366078D01*
X134896067Y-93387689D01*
X134911613Y-93406631D01*
X134930555Y-93422176D01*
X134952165Y-93433727D01*
X134975614Y-93440840D01*
X135000000Y-93443242D01*
X135024387Y-93440840D01*
X135047835Y-93433727D01*
X135069446Y-93422176D01*
X135088388Y-93406630D01*
X135103933Y-93387688D01*
X135115484Y-93366078D01*
X135122595Y-93342638D01*
X135133624Y-93287188D01*
X135201544Y-93123216D01*
X135300147Y-92975646D01*
X135425646Y-92850147D01*
X135573216Y-92751544D01*
X135737188Y-92683624D01*
X135886488Y-92653927D01*
X135911258Y-92649000D01*
X136088742Y-92649000D01*
X136113512Y-92653927D01*
X136262812Y-92683624D01*
X136426784Y-92751544D01*
X136574354Y-92850147D01*
X136699853Y-92975646D01*
X136798456Y-93123216D01*
X136866376Y-93287188D01*
X136877405Y-93342638D01*
X136884516Y-93366078D01*
X136896067Y-93387689D01*
X136911613Y-93406631D01*
X136930555Y-93422176D01*
X136952165Y-93433727D01*
X136975614Y-93440840D01*
X137000000Y-93443242D01*
X137024387Y-93440840D01*
X137047835Y-93433727D01*
X137069446Y-93422176D01*
X137088388Y-93406630D01*
X137103933Y-93387688D01*
X137115484Y-93366078D01*
X137122595Y-93342638D01*
X137133624Y-93287188D01*
X137201544Y-93123216D01*
X137300147Y-92975646D01*
X137425646Y-92850147D01*
X137573216Y-92751544D01*
X137737188Y-92683624D01*
X137886488Y-92653927D01*
X137911258Y-92649000D01*
X138088742Y-92649000D01*
X138113512Y-92653927D01*
X138262812Y-92683624D01*
X138426784Y-92751544D01*
X138574354Y-92850147D01*
X138699853Y-92975646D01*
X138798456Y-93123216D01*
X138866376Y-93287188D01*
X138877405Y-93342638D01*
X138884516Y-93366078D01*
X138896067Y-93387689D01*
X138911613Y-93406631D01*
X138930555Y-93422176D01*
X138952165Y-93433727D01*
X138975614Y-93440840D01*
X139000000Y-93443242D01*
X139024387Y-93440840D01*
X139047835Y-93433727D01*
X139069446Y-93422176D01*
X139088388Y-93406630D01*
X139103933Y-93387688D01*
X139115484Y-93366078D01*
X139122595Y-93342638D01*
X139133624Y-93287188D01*
X139201544Y-93123216D01*
X139300147Y-92975646D01*
X139425646Y-92850147D01*
X139573216Y-92751544D01*
X139737188Y-92683624D01*
X139886488Y-92653927D01*
X139911258Y-92649000D01*
X140088742Y-92649000D01*
X140113512Y-92653927D01*
X140262812Y-92683624D01*
X140426784Y-92751544D01*
X140574354Y-92850147D01*
X140699853Y-92975646D01*
X140798456Y-93123216D01*
X140866376Y-93287188D01*
X140901000Y-93461259D01*
X140901000Y-93638741D01*
X140866376Y-93812812D01*
X140798456Y-93976784D01*
X140699853Y-94124354D01*
X140574354Y-94249853D01*
X140426784Y-94348456D01*
X140262812Y-94416376D01*
X140113512Y-94446073D01*
X140088742Y-94451000D01*
X139911258Y-94451000D01*
X139886488Y-94446073D01*
X139737188Y-94416376D01*
X139573216Y-94348456D01*
X139425646Y-94249853D01*
X139300147Y-94124354D01*
X139201544Y-93976784D01*
X139133624Y-93812812D01*
X139122595Y-93757362D01*
X139115484Y-93733922D01*
X139103933Y-93712311D01*
X139088387Y-93693369D01*
X139069445Y-93677824D01*
X139047835Y-93666273D01*
X139024386Y-93659160D01*
X139000000Y-93656758D01*
X138975613Y-93659160D01*
X138952165Y-93666273D01*
X138930554Y-93677824D01*
X138911612Y-93693370D01*
X138896067Y-93712312D01*
X138884516Y-93733922D01*
X138877405Y-93757362D01*
X138866376Y-93812812D01*
X138798456Y-93976784D01*
X138699853Y-94124354D01*
X138574354Y-94249853D01*
X138426784Y-94348456D01*
X138262812Y-94416376D01*
X138113512Y-94446073D01*
X138088742Y-94451000D01*
X137911258Y-94451000D01*
X137886488Y-94446073D01*
X137737188Y-94416376D01*
X137573216Y-94348456D01*
X137425646Y-94249853D01*
X137300147Y-94124354D01*
X137201544Y-93976784D01*
X137133624Y-93812812D01*
X137122595Y-93757362D01*
X137115484Y-93733922D01*
X137103933Y-93712311D01*
X137088387Y-93693369D01*
X137069445Y-93677824D01*
X137047835Y-93666273D01*
X137024386Y-93659160D01*
X137000000Y-93656758D01*
X136975613Y-93659160D01*
X136952165Y-93666273D01*
X136930554Y-93677824D01*
X136911612Y-93693370D01*
X136896067Y-93712312D01*
X136884516Y-93733922D01*
X136877405Y-93757362D01*
X136866376Y-93812812D01*
X136798456Y-93976784D01*
X136699853Y-94124354D01*
X136574354Y-94249853D01*
X136426784Y-94348456D01*
X136262812Y-94416376D01*
X136113512Y-94446073D01*
X136088742Y-94451000D01*
X135911258Y-94451000D01*
X135886488Y-94446073D01*
X135737188Y-94416376D01*
X135573216Y-94348456D01*
X135425646Y-94249853D01*
X135300147Y-94124354D01*
X135201544Y-93976784D01*
X135133624Y-93812812D01*
X135122595Y-93757362D01*
X135115484Y-93733922D01*
X135103933Y-93712311D01*
X135088387Y-93693369D01*
X135069445Y-93677824D01*
X135047835Y-93666273D01*
X135024386Y-93659160D01*
X135000000Y-93656758D01*
X134975613Y-93659160D01*
X134952165Y-93666273D01*
X134930554Y-93677824D01*
X134911612Y-93693370D01*
X134896067Y-93712312D01*
X134884516Y-93733922D01*
X134877405Y-93757362D01*
X134866376Y-93812812D01*
X134798456Y-93976784D01*
X134699853Y-94124354D01*
X134574354Y-94249853D01*
X134426784Y-94348456D01*
X134262812Y-94416376D01*
X134113512Y-94446073D01*
X134088742Y-94451000D01*
X133911258Y-94451000D01*
X133886488Y-94446073D01*
X133737188Y-94416376D01*
X133573216Y-94348456D01*
X133425646Y-94249853D01*
X133300147Y-94124354D01*
X133201544Y-93976784D01*
X133133624Y-93812812D01*
X133122595Y-93757362D01*
X133115484Y-93733922D01*
X133103933Y-93712311D01*
X133088387Y-93693369D01*
X133069445Y-93677824D01*
X133047835Y-93666273D01*
X133024386Y-93659160D01*
X133000000Y-93656758D01*
X132975613Y-93659160D01*
X132952165Y-93666273D01*
X132930554Y-93677824D01*
X132911612Y-93693370D01*
X132896067Y-93712312D01*
X132884516Y-93733922D01*
X132877405Y-93757362D01*
X132866376Y-93812812D01*
X132798456Y-93976784D01*
X132699853Y-94124354D01*
X132574354Y-94249853D01*
X132426784Y-94348456D01*
X132262812Y-94416376D01*
X132113512Y-94446073D01*
X132088742Y-94451000D01*
X131911258Y-94451000D01*
X131886488Y-94446073D01*
X131737188Y-94416376D01*
X131573216Y-94348456D01*
X131425646Y-94249853D01*
X131300147Y-94124354D01*
X131201544Y-93976784D01*
X131133624Y-93812812D01*
X131122595Y-93757362D01*
X131115484Y-93733922D01*
X131103933Y-93712311D01*
X131088387Y-93693369D01*
X131069445Y-93677824D01*
X131047835Y-93666273D01*
X131024386Y-93659160D01*
X131000000Y-93656758D01*
X130975613Y-93659160D01*
X130952165Y-93666273D01*
X130930554Y-93677824D01*
X130911612Y-93693370D01*
X130896067Y-93712312D01*
X130884516Y-93733922D01*
X130877405Y-93757362D01*
X130866376Y-93812812D01*
X130798456Y-93976784D01*
X130699853Y-94124354D01*
X130574354Y-94249853D01*
X130426784Y-94348456D01*
X130262812Y-94416376D01*
X130113512Y-94446073D01*
X130088742Y-94451000D01*
X129911258Y-94451000D01*
X129886488Y-94446073D01*
X129737188Y-94416376D01*
X129573216Y-94348456D01*
X129425646Y-94249853D01*
X129300147Y-94124354D01*
X129201544Y-93976784D01*
X129133624Y-93812812D01*
X129099000Y-93638741D01*
X129099000Y-93461259D01*
X129133624Y-93287188D01*
X129201544Y-93123216D01*
X129300147Y-92975646D01*
X129425646Y-92850147D01*
X129573216Y-92751544D01*
X129737188Y-92683624D01*
X129886488Y-92653927D01*
X129911258Y-92649000D01*
X130088742Y-92649000D01*
X130113512Y-92653927D01*
G37*
G36*
X111201000Y-84701000D02*
G01*
X109399000Y-84701000D01*
X109399000Y-82899000D01*
X111201000Y-82899000D01*
X111201000Y-84701000D01*
G37*
G36*
X112953512Y-82903927D02*
G01*
X113102812Y-82933624D01*
X113266784Y-83001544D01*
X113414354Y-83100147D01*
X113539853Y-83225646D01*
X113638456Y-83373216D01*
X113706376Y-83537188D01*
X113741000Y-83711259D01*
X113741000Y-83888741D01*
X113706376Y-84062812D01*
X113638456Y-84226784D01*
X113539853Y-84374354D01*
X113414354Y-84499853D01*
X113266784Y-84598456D01*
X113102812Y-84666376D01*
X112953512Y-84696073D01*
X112928742Y-84701000D01*
X112751258Y-84701000D01*
X112726488Y-84696073D01*
X112577188Y-84666376D01*
X112413216Y-84598456D01*
X112265646Y-84499853D01*
X112140147Y-84374354D01*
X112041544Y-84226784D01*
X111973624Y-84062812D01*
X111939000Y-83888741D01*
X111939000Y-83711259D01*
X111973624Y-83537188D01*
X112041544Y-83373216D01*
X112140147Y-83225646D01*
X112265646Y-83100147D01*
X112413216Y-83001544D01*
X112577188Y-82933624D01*
X112726488Y-82903927D01*
X112751258Y-82899000D01*
X112928742Y-82899000D01*
X112953512Y-82903927D01*
G37*
G36*
X132113512Y-76153927D02*
G01*
X132262812Y-76183624D01*
X132426784Y-76251544D01*
X132574354Y-76350147D01*
X132699853Y-76475646D01*
X132798456Y-76623216D01*
X132866376Y-76787188D01*
X132901000Y-76961259D01*
X132901000Y-77138741D01*
X132866376Y-77312812D01*
X132798456Y-77476784D01*
X132699853Y-77624354D01*
X132574354Y-77749853D01*
X132426784Y-77848456D01*
X132262812Y-77916376D01*
X132113512Y-77946073D01*
X132088742Y-77951000D01*
X131911258Y-77951000D01*
X131886488Y-77946073D01*
X131737188Y-77916376D01*
X131573216Y-77848456D01*
X131425646Y-77749853D01*
X131300147Y-77624354D01*
X131201544Y-77476784D01*
X131133624Y-77312812D01*
X131099000Y-77138741D01*
X131099000Y-76961259D01*
X131133624Y-76787188D01*
X131201544Y-76623216D01*
X131300147Y-76475646D01*
X131425646Y-76350147D01*
X131573216Y-76251544D01*
X131737188Y-76183624D01*
X131886488Y-76153927D01*
X131911258Y-76149000D01*
X132088742Y-76149000D01*
X132113512Y-76153927D01*
G37*
G36*
X138113512Y-76153927D02*
G01*
X138262812Y-76183624D01*
X138426784Y-76251544D01*
X138574354Y-76350147D01*
X138699853Y-76475646D01*
X138798456Y-76623216D01*
X138866376Y-76787188D01*
X138901000Y-76961259D01*
X138901000Y-77138741D01*
X138866376Y-77312812D01*
X138798456Y-77476784D01*
X138699853Y-77624354D01*
X138574354Y-77749853D01*
X138426784Y-77848456D01*
X138262812Y-77916376D01*
X138113512Y-77946073D01*
X138088742Y-77951000D01*
X137911258Y-77951000D01*
X137886488Y-77946073D01*
X137737188Y-77916376D01*
X137573216Y-77848456D01*
X137425646Y-77749853D01*
X137300147Y-77624354D01*
X137201544Y-77476784D01*
X137133624Y-77312812D01*
X137099000Y-77138741D01*
X137099000Y-76961259D01*
X137133624Y-76787188D01*
X137201544Y-76623216D01*
X137300147Y-76475646D01*
X137425646Y-76350147D01*
X137573216Y-76251544D01*
X137737188Y-76183624D01*
X137886488Y-76153927D01*
X137911258Y-76149000D01*
X138088742Y-76149000D01*
X138113512Y-76153927D01*
G37*
G36*
X141206564Y-73039389D02*
G01*
X141397833Y-73118615D01*
X141397835Y-73118616D01*
X141569973Y-73233635D01*
X141716365Y-73380027D01*
X141831385Y-73552167D01*
X141910611Y-73743436D01*
X141951000Y-73946484D01*
X141951000Y-74153516D01*
X141910611Y-74356564D01*
X141831385Y-74547833D01*
X141831384Y-74547835D01*
X141716365Y-74719973D01*
X141569973Y-74866365D01*
X141397835Y-74981384D01*
X141397834Y-74981385D01*
X141397833Y-74981385D01*
X141206564Y-75060611D01*
X141003516Y-75101000D01*
X140796484Y-75101000D01*
X140593436Y-75060611D01*
X140402167Y-74981385D01*
X140402166Y-74981385D01*
X140402165Y-74981384D01*
X140230027Y-74866365D01*
X140083635Y-74719973D01*
X139968616Y-74547835D01*
X139968615Y-74547833D01*
X139889389Y-74356564D01*
X139849000Y-74153516D01*
X139849000Y-73946484D01*
X139889389Y-73743436D01*
X139968615Y-73552167D01*
X140083635Y-73380027D01*
X140230027Y-73233635D01*
X140402165Y-73118616D01*
X140402167Y-73118615D01*
X140593436Y-73039389D01*
X140796484Y-72999000D01*
X141003516Y-72999000D01*
X141206564Y-73039389D01*
G37*
G36*
X145383642Y-70779781D02*
G01*
X145529414Y-70840162D01*
X145529416Y-70840163D01*
X145660608Y-70927822D01*
X145772178Y-71039392D01*
X145859837Y-71170584D01*
X145859838Y-71170586D01*
X145920219Y-71316358D01*
X145951000Y-71471107D01*
X145951000Y-71628893D01*
X145920219Y-71783642D01*
X145859838Y-71929414D01*
X145859837Y-71929416D01*
X145772178Y-72060608D01*
X145660608Y-72172178D01*
X145529416Y-72259837D01*
X145529415Y-72259838D01*
X145529414Y-72259838D01*
X145383642Y-72320219D01*
X145228893Y-72351000D01*
X145071107Y-72351000D01*
X144916358Y-72320219D01*
X144770586Y-72259838D01*
X144770585Y-72259838D01*
X144770584Y-72259837D01*
X144639392Y-72172178D01*
X144527822Y-72060608D01*
X144440163Y-71929416D01*
X144440162Y-71929414D01*
X144379781Y-71783642D01*
X144349000Y-71628893D01*
X144349000Y-71471107D01*
X144379781Y-71316358D01*
X144440162Y-71170586D01*
X144440163Y-71170584D01*
X144527822Y-71039392D01*
X144639392Y-70927822D01*
X144770584Y-70840163D01*
X144770586Y-70840162D01*
X144916358Y-70779781D01*
X145071107Y-70749000D01*
X145228893Y-70749000D01*
X145383642Y-70779781D01*
G37*
G36*
X142883642Y-70779781D02*
G01*
X143029414Y-70840162D01*
X143029416Y-70840163D01*
X143160608Y-70927822D01*
X143272178Y-71039392D01*
X143359837Y-71170584D01*
X143359838Y-71170586D01*
X143420219Y-71316358D01*
X143451000Y-71471107D01*
X143451000Y-71628893D01*
X143420219Y-71783642D01*
X143359838Y-71929414D01*
X143359837Y-71929416D01*
X143272178Y-72060608D01*
X143160608Y-72172178D01*
X143029416Y-72259837D01*
X143029415Y-72259838D01*
X143029414Y-72259838D01*
X142883642Y-72320219D01*
X142728893Y-72351000D01*
X142571107Y-72351000D01*
X142416358Y-72320219D01*
X142270586Y-72259838D01*
X142270585Y-72259838D01*
X142270584Y-72259837D01*
X142139392Y-72172178D01*
X142027822Y-72060608D01*
X141940163Y-71929416D01*
X141940162Y-71929414D01*
X141879781Y-71783642D01*
X141849000Y-71628893D01*
X141849000Y-71471107D01*
X141879781Y-71316358D01*
X141940162Y-71170586D01*
X141940163Y-71170584D01*
X142027822Y-71039392D01*
X142139392Y-70927822D01*
X142270584Y-70840163D01*
X142270586Y-70840162D01*
X142416358Y-70779781D01*
X142571107Y-70749000D01*
X142728893Y-70749000D01*
X142883642Y-70779781D01*
G37*
G36*
X142883642Y-66779781D02*
G01*
X143029414Y-66840162D01*
X143029416Y-66840163D01*
X143160608Y-66927822D01*
X143272178Y-67039392D01*
X143314121Y-67102165D01*
X143359838Y-67170586D01*
X143420219Y-67316358D01*
X143451000Y-67471107D01*
X143451000Y-67628893D01*
X143420219Y-67783642D01*
X143359838Y-67929414D01*
X143359837Y-67929416D01*
X143272178Y-68060608D01*
X143160608Y-68172178D01*
X143029416Y-68259837D01*
X143029415Y-68259838D01*
X143029414Y-68259838D01*
X142883642Y-68320219D01*
X142728893Y-68351000D01*
X142571107Y-68351000D01*
X142416358Y-68320219D01*
X142270586Y-68259838D01*
X142270585Y-68259838D01*
X142270584Y-68259837D01*
X142139392Y-68172178D01*
X142027822Y-68060608D01*
X141940163Y-67929416D01*
X141940162Y-67929414D01*
X141879781Y-67783642D01*
X141849000Y-67628893D01*
X141849000Y-67471107D01*
X141879781Y-67316358D01*
X141940162Y-67170586D01*
X141985879Y-67102165D01*
X142027822Y-67039392D01*
X142139392Y-66927822D01*
X142270584Y-66840163D01*
X142270586Y-66840162D01*
X142416358Y-66779781D01*
X142571107Y-66749000D01*
X142728893Y-66749000D01*
X142883642Y-66779781D01*
G37*
G36*
X145383642Y-66779781D02*
G01*
X145529414Y-66840162D01*
X145529416Y-66840163D01*
X145660608Y-66927822D01*
X145772178Y-67039392D01*
X145814121Y-67102165D01*
X145859838Y-67170586D01*
X145920219Y-67316358D01*
X145951000Y-67471107D01*
X145951000Y-67628893D01*
X145920219Y-67783642D01*
X145859838Y-67929414D01*
X145859837Y-67929416D01*
X145772178Y-68060608D01*
X145660608Y-68172178D01*
X145529416Y-68259837D01*
X145529415Y-68259838D01*
X145529414Y-68259838D01*
X145383642Y-68320219D01*
X145228893Y-68351000D01*
X145071107Y-68351000D01*
X144916358Y-68320219D01*
X144770586Y-68259838D01*
X144770585Y-68259838D01*
X144770584Y-68259837D01*
X144639392Y-68172178D01*
X144527822Y-68060608D01*
X144440163Y-67929416D01*
X144440162Y-67929414D01*
X144379781Y-67783642D01*
X144349000Y-67628893D01*
X144349000Y-67471107D01*
X144379781Y-67316358D01*
X144440162Y-67170586D01*
X144485879Y-67102165D01*
X144527822Y-67039392D01*
X144639392Y-66927822D01*
X144770584Y-66840163D01*
X144770586Y-66840162D01*
X144916358Y-66779781D01*
X145071107Y-66749000D01*
X145228893Y-66749000D01*
X145383642Y-66779781D01*
G37*
G36*
X113551552Y-63216331D02*
G01*
X113633627Y-63250328D01*
X113633629Y-63250329D01*
X113670813Y-63275175D01*
X113707495Y-63299685D01*
X113770316Y-63362506D01*
X113816067Y-63430977D01*
X113831613Y-63449919D01*
X113850555Y-63465464D01*
X113872165Y-63477015D01*
X113895614Y-63484128D01*
X113920000Y-63486530D01*
X113944386Y-63484128D01*
X113967835Y-63477015D01*
X113989446Y-63465464D01*
X114008388Y-63449918D01*
X114023933Y-63430977D01*
X114069684Y-63362506D01*
X114132505Y-63299685D01*
X114169187Y-63275175D01*
X114206371Y-63250329D01*
X114206373Y-63250328D01*
X114288448Y-63216331D01*
X114375579Y-63199000D01*
X114464421Y-63199000D01*
X114551552Y-63216331D01*
X114633627Y-63250328D01*
X114633629Y-63250329D01*
X114670813Y-63275175D01*
X114707495Y-63299685D01*
X114770316Y-63362506D01*
X114816067Y-63430977D01*
X114831613Y-63449919D01*
X114850555Y-63465464D01*
X114872165Y-63477015D01*
X114895614Y-63484128D01*
X114920000Y-63486530D01*
X114944386Y-63484128D01*
X114967835Y-63477015D01*
X114989446Y-63465464D01*
X115008388Y-63449918D01*
X115023933Y-63430977D01*
X115069684Y-63362506D01*
X115132505Y-63299685D01*
X115169187Y-63275175D01*
X115206371Y-63250329D01*
X115206373Y-63250328D01*
X115288448Y-63216331D01*
X115375579Y-63199000D01*
X115464421Y-63199000D01*
X115551552Y-63216331D01*
X115633627Y-63250328D01*
X115633629Y-63250329D01*
X115670813Y-63275175D01*
X115707495Y-63299685D01*
X115770316Y-63362506D01*
X115816067Y-63430977D01*
X115831613Y-63449919D01*
X115850555Y-63465464D01*
X115872165Y-63477015D01*
X115895614Y-63484128D01*
X115920000Y-63486530D01*
X115944386Y-63484128D01*
X115967835Y-63477015D01*
X115989446Y-63465464D01*
X116008388Y-63449918D01*
X116023933Y-63430977D01*
X116069684Y-63362506D01*
X116132505Y-63299685D01*
X116169187Y-63275175D01*
X116206371Y-63250329D01*
X116206373Y-63250328D01*
X116288448Y-63216331D01*
X116375579Y-63199000D01*
X116464421Y-63199000D01*
X116551552Y-63216331D01*
X116633627Y-63250328D01*
X116633629Y-63250329D01*
X116670813Y-63275175D01*
X116707495Y-63299685D01*
X116770316Y-63362506D01*
X116816067Y-63430977D01*
X116831613Y-63449919D01*
X116850555Y-63465464D01*
X116872165Y-63477015D01*
X116895614Y-63484128D01*
X116920000Y-63486530D01*
X116944386Y-63484128D01*
X116967835Y-63477015D01*
X116989446Y-63465464D01*
X117008388Y-63449918D01*
X117023933Y-63430977D01*
X117069684Y-63362506D01*
X117132505Y-63299685D01*
X117169187Y-63275175D01*
X117206371Y-63250329D01*
X117206373Y-63250328D01*
X117288448Y-63216331D01*
X117375579Y-63199000D01*
X117464421Y-63199000D01*
X117551552Y-63216331D01*
X117633627Y-63250328D01*
X117633629Y-63250329D01*
X117670813Y-63275175D01*
X117707495Y-63299685D01*
X117770315Y-63362505D01*
X117819672Y-63436373D01*
X117853669Y-63518448D01*
X117871000Y-63605579D01*
X117871000Y-63694421D01*
X117853669Y-63781552D01*
X117819672Y-63863627D01*
X117770315Y-63937495D01*
X117707494Y-64000316D01*
X117639023Y-64046067D01*
X117620081Y-64061613D01*
X117604536Y-64080555D01*
X117592985Y-64102165D01*
X117585872Y-64125614D01*
X117583470Y-64150000D01*
X117585872Y-64174386D01*
X117592985Y-64197835D01*
X117604536Y-64219446D01*
X117620082Y-64238388D01*
X117639023Y-64253933D01*
X117707494Y-64299684D01*
X117770315Y-64362505D01*
X117819672Y-64436373D01*
X117853669Y-64518448D01*
X117871000Y-64605579D01*
X117871000Y-64694421D01*
X117853669Y-64781552D01*
X117819672Y-64863627D01*
X117770315Y-64937495D01*
X117707494Y-65000316D01*
X117639023Y-65046067D01*
X117620081Y-65061613D01*
X117604536Y-65080555D01*
X117592985Y-65102165D01*
X117585872Y-65125614D01*
X117583470Y-65150000D01*
X117585872Y-65174386D01*
X117592985Y-65197835D01*
X117604536Y-65219446D01*
X117620082Y-65238388D01*
X117639023Y-65253933D01*
X117707494Y-65299684D01*
X117770315Y-65362505D01*
X117819672Y-65436373D01*
X117853669Y-65518448D01*
X117871000Y-65605579D01*
X117871000Y-65694421D01*
X117853669Y-65781552D01*
X117819672Y-65863627D01*
X117770315Y-65937495D01*
X117707494Y-66000316D01*
X117639023Y-66046067D01*
X117620081Y-66061613D01*
X117604536Y-66080555D01*
X117592985Y-66102165D01*
X117585872Y-66125614D01*
X117583470Y-66150000D01*
X117585872Y-66174386D01*
X117592985Y-66197835D01*
X117604536Y-66219446D01*
X117620082Y-66238388D01*
X117639023Y-66253933D01*
X117707494Y-66299684D01*
X117770315Y-66362505D01*
X117794825Y-66399187D01*
X117812505Y-66425646D01*
X117819672Y-66436373D01*
X117853669Y-66518448D01*
X117871000Y-66605579D01*
X117871000Y-66694421D01*
X117853669Y-66781552D01*
X117819672Y-66863627D01*
X117770315Y-66937495D01*
X117707494Y-67000316D01*
X117639023Y-67046067D01*
X117620081Y-67061613D01*
X117604536Y-67080555D01*
X117592985Y-67102165D01*
X117585872Y-67125614D01*
X117583470Y-67150000D01*
X117585872Y-67174386D01*
X117592985Y-67197835D01*
X117604536Y-67219446D01*
X117620082Y-67238388D01*
X117639023Y-67253933D01*
X117707494Y-67299684D01*
X117770315Y-67362505D01*
X117819672Y-67436373D01*
X117853669Y-67518448D01*
X117871000Y-67605579D01*
X117871000Y-67694421D01*
X117853669Y-67781552D01*
X117819672Y-67863627D01*
X117770316Y-67937494D01*
X117707496Y-68000314D01*
X117633629Y-68049671D01*
X117633628Y-68049672D01*
X117633627Y-68049672D01*
X117551552Y-68083669D01*
X117464421Y-68101000D01*
X117375579Y-68101000D01*
X117288448Y-68083669D01*
X117206373Y-68049672D01*
X117206372Y-68049672D01*
X117206371Y-68049671D01*
X117132504Y-68000314D01*
X117069684Y-67937494D01*
X117023933Y-67869023D01*
X117008387Y-67850081D01*
X116989445Y-67834536D01*
X116967835Y-67822985D01*
X116944386Y-67815872D01*
X116920000Y-67813470D01*
X116895614Y-67815872D01*
X116872165Y-67822985D01*
X116850554Y-67834536D01*
X116831612Y-67850082D01*
X116816067Y-67869023D01*
X116770316Y-67937494D01*
X116707496Y-68000314D01*
X116633629Y-68049671D01*
X116633628Y-68049672D01*
X116633627Y-68049672D01*
X116551552Y-68083669D01*
X116464421Y-68101000D01*
X116375579Y-68101000D01*
X116288448Y-68083669D01*
X116206373Y-68049672D01*
X116206372Y-68049672D01*
X116206371Y-68049671D01*
X116132504Y-68000314D01*
X116069684Y-67937494D01*
X116023933Y-67869023D01*
X116008387Y-67850081D01*
X115989445Y-67834536D01*
X115967835Y-67822985D01*
X115944386Y-67815872D01*
X115920000Y-67813470D01*
X115895614Y-67815872D01*
X115872165Y-67822985D01*
X115850554Y-67834536D01*
X115831612Y-67850082D01*
X115816067Y-67869023D01*
X115770316Y-67937494D01*
X115707496Y-68000314D01*
X115633629Y-68049671D01*
X115633628Y-68049672D01*
X115633627Y-68049672D01*
X115551552Y-68083669D01*
X115464421Y-68101000D01*
X115375579Y-68101000D01*
X115288448Y-68083669D01*
X115206373Y-68049672D01*
X115206372Y-68049672D01*
X115206371Y-68049671D01*
X115132504Y-68000314D01*
X115069684Y-67937494D01*
X115023933Y-67869023D01*
X115008387Y-67850081D01*
X114989445Y-67834536D01*
X114967835Y-67822985D01*
X114944386Y-67815872D01*
X114920000Y-67813470D01*
X114895614Y-67815872D01*
X114872165Y-67822985D01*
X114850554Y-67834536D01*
X114831612Y-67850082D01*
X114816067Y-67869023D01*
X114770316Y-67937494D01*
X114707496Y-68000314D01*
X114633629Y-68049671D01*
X114633628Y-68049672D01*
X114633627Y-68049672D01*
X114551552Y-68083669D01*
X114464421Y-68101000D01*
X114375579Y-68101000D01*
X114288448Y-68083669D01*
X114206373Y-68049672D01*
X114206372Y-68049672D01*
X114206371Y-68049671D01*
X114132504Y-68000314D01*
X114069684Y-67937494D01*
X114023933Y-67869023D01*
X114008387Y-67850081D01*
X113989445Y-67834536D01*
X113967835Y-67822985D01*
X113944386Y-67815872D01*
X113920000Y-67813470D01*
X113895614Y-67815872D01*
X113872165Y-67822985D01*
X113850554Y-67834536D01*
X113831612Y-67850082D01*
X113816067Y-67869023D01*
X113770316Y-67937494D01*
X113707496Y-68000314D01*
X113633629Y-68049671D01*
X113633628Y-68049672D01*
X113633627Y-68049672D01*
X113551552Y-68083669D01*
X113464421Y-68101000D01*
X113375579Y-68101000D01*
X113288448Y-68083669D01*
X113206373Y-68049672D01*
X113206372Y-68049672D01*
X113206371Y-68049671D01*
X113132504Y-68000314D01*
X113069686Y-67937496D01*
X113069685Y-67937494D01*
X113020328Y-67863627D01*
X112986331Y-67781552D01*
X112969000Y-67694421D01*
X112969000Y-67605579D01*
X112986331Y-67518448D01*
X113020328Y-67436373D01*
X113069685Y-67362505D01*
X113132506Y-67299684D01*
X113200977Y-67253933D01*
X113219919Y-67238387D01*
X113235464Y-67219445D01*
X113247015Y-67197835D01*
X113254128Y-67174386D01*
X113256530Y-67150000D01*
X113583470Y-67150000D01*
X113585872Y-67174386D01*
X113592985Y-67197835D01*
X113604536Y-67219446D01*
X113620082Y-67238388D01*
X113639023Y-67253933D01*
X113707494Y-67299684D01*
X113770316Y-67362506D01*
X113816067Y-67430977D01*
X113831613Y-67449919D01*
X113850555Y-67465464D01*
X113872165Y-67477015D01*
X113895614Y-67484128D01*
X113920000Y-67486530D01*
X113944386Y-67484128D01*
X113967835Y-67477015D01*
X113989446Y-67465464D01*
X114008388Y-67449918D01*
X114023933Y-67430977D01*
X114069684Y-67362506D01*
X114132506Y-67299684D01*
X114200977Y-67253933D01*
X114219919Y-67238387D01*
X114235464Y-67219445D01*
X114247015Y-67197835D01*
X114254128Y-67174386D01*
X114256530Y-67150000D01*
X114583470Y-67150000D01*
X114585872Y-67174386D01*
X114592985Y-67197835D01*
X114604536Y-67219446D01*
X114620082Y-67238388D01*
X114639023Y-67253933D01*
X114707494Y-67299684D01*
X114770316Y-67362506D01*
X114816067Y-67430977D01*
X114831613Y-67449919D01*
X114850555Y-67465464D01*
X114872165Y-67477015D01*
X114895614Y-67484128D01*
X114920000Y-67486530D01*
X114944386Y-67484128D01*
X114967835Y-67477015D01*
X114989446Y-67465464D01*
X115008388Y-67449918D01*
X115023933Y-67430977D01*
X115069684Y-67362506D01*
X115132506Y-67299684D01*
X115200977Y-67253933D01*
X115219919Y-67238387D01*
X115235464Y-67219445D01*
X115247015Y-67197835D01*
X115254128Y-67174386D01*
X115256530Y-67150000D01*
X115583470Y-67150000D01*
X115585872Y-67174386D01*
X115592985Y-67197835D01*
X115604536Y-67219446D01*
X115620082Y-67238388D01*
X115639023Y-67253933D01*
X115707494Y-67299684D01*
X115770316Y-67362506D01*
X115816067Y-67430977D01*
X115831613Y-67449919D01*
X115850555Y-67465464D01*
X115872165Y-67477015D01*
X115895614Y-67484128D01*
X115920000Y-67486530D01*
X115944386Y-67484128D01*
X115967835Y-67477015D01*
X115989446Y-67465464D01*
X116008388Y-67449918D01*
X116023933Y-67430977D01*
X116069684Y-67362506D01*
X116132506Y-67299684D01*
X116200977Y-67253933D01*
X116219919Y-67238387D01*
X116235464Y-67219445D01*
X116247015Y-67197835D01*
X116254128Y-67174386D01*
X116256530Y-67150000D01*
X116583470Y-67150000D01*
X116585872Y-67174386D01*
X116592985Y-67197835D01*
X116604536Y-67219446D01*
X116620082Y-67238388D01*
X116639023Y-67253933D01*
X116707494Y-67299684D01*
X116770316Y-67362506D01*
X116816067Y-67430977D01*
X116831613Y-67449919D01*
X116850555Y-67465464D01*
X116872165Y-67477015D01*
X116895614Y-67484128D01*
X116920000Y-67486530D01*
X116944386Y-67484128D01*
X116967835Y-67477015D01*
X116989446Y-67465464D01*
X117008388Y-67449918D01*
X117023933Y-67430977D01*
X117069684Y-67362506D01*
X117132506Y-67299684D01*
X117200977Y-67253933D01*
X117219919Y-67238387D01*
X117235464Y-67219445D01*
X117247015Y-67197835D01*
X117254128Y-67174386D01*
X117256530Y-67150000D01*
X117254128Y-67125614D01*
X117247015Y-67102165D01*
X117235464Y-67080554D01*
X117219918Y-67061612D01*
X117200977Y-67046067D01*
X117132506Y-67000316D01*
X117069684Y-66937494D01*
X117023933Y-66869023D01*
X117008387Y-66850081D01*
X116989445Y-66834536D01*
X116967835Y-66822985D01*
X116944386Y-66815872D01*
X116920000Y-66813470D01*
X116895614Y-66815872D01*
X116872165Y-66822985D01*
X116850554Y-66834536D01*
X116831612Y-66850082D01*
X116816067Y-66869023D01*
X116770316Y-66937494D01*
X116707494Y-67000316D01*
X116639023Y-67046067D01*
X116620081Y-67061613D01*
X116604536Y-67080555D01*
X116592985Y-67102165D01*
X116585872Y-67125614D01*
X116583470Y-67150000D01*
X116256530Y-67150000D01*
X116254128Y-67125614D01*
X116247015Y-67102165D01*
X116235464Y-67080554D01*
X116219918Y-67061612D01*
X116200977Y-67046067D01*
X116132506Y-67000316D01*
X116069684Y-66937494D01*
X116023933Y-66869023D01*
X116008387Y-66850081D01*
X115989445Y-66834536D01*
X115967835Y-66822985D01*
X115944386Y-66815872D01*
X115920000Y-66813470D01*
X115895614Y-66815872D01*
X115872165Y-66822985D01*
X115850554Y-66834536D01*
X115831612Y-66850082D01*
X115816067Y-66869023D01*
X115770316Y-66937494D01*
X115707494Y-67000316D01*
X115639023Y-67046067D01*
X115620081Y-67061613D01*
X115604536Y-67080555D01*
X115592985Y-67102165D01*
X115585872Y-67125614D01*
X115583470Y-67150000D01*
X115256530Y-67150000D01*
X115254128Y-67125614D01*
X115247015Y-67102165D01*
X115235464Y-67080554D01*
X115219918Y-67061612D01*
X115200977Y-67046067D01*
X115132506Y-67000316D01*
X115069684Y-66937494D01*
X115023933Y-66869023D01*
X115008387Y-66850081D01*
X114989445Y-66834536D01*
X114967835Y-66822985D01*
X114944386Y-66815872D01*
X114920000Y-66813470D01*
X114895614Y-66815872D01*
X114872165Y-66822985D01*
X114850554Y-66834536D01*
X114831612Y-66850082D01*
X114816067Y-66869023D01*
X114770316Y-66937494D01*
X114707494Y-67000316D01*
X114639023Y-67046067D01*
X114620081Y-67061613D01*
X114604536Y-67080555D01*
X114592985Y-67102165D01*
X114585872Y-67125614D01*
X114583470Y-67150000D01*
X114256530Y-67150000D01*
X114254128Y-67125614D01*
X114247015Y-67102165D01*
X114235464Y-67080554D01*
X114219918Y-67061612D01*
X114200977Y-67046067D01*
X114132506Y-67000316D01*
X114069684Y-66937494D01*
X114023933Y-66869023D01*
X114008387Y-66850081D01*
X113989445Y-66834536D01*
X113967835Y-66822985D01*
X113944386Y-66815872D01*
X113920000Y-66813470D01*
X113895614Y-66815872D01*
X113872165Y-66822985D01*
X113850554Y-66834536D01*
X113831612Y-66850082D01*
X113816067Y-66869023D01*
X113770316Y-66937494D01*
X113707494Y-67000316D01*
X113639023Y-67046067D01*
X113620081Y-67061613D01*
X113604536Y-67080555D01*
X113592985Y-67102165D01*
X113585872Y-67125614D01*
X113583470Y-67150000D01*
X113256530Y-67150000D01*
X113254128Y-67125614D01*
X113247015Y-67102165D01*
X113235464Y-67080554D01*
X113219918Y-67061612D01*
X113200977Y-67046067D01*
X113132506Y-67000316D01*
X113069685Y-66937495D01*
X113020328Y-66863627D01*
X112986331Y-66781552D01*
X112969000Y-66694421D01*
X112969000Y-66605579D01*
X112986331Y-66518448D01*
X113020328Y-66436373D01*
X113027496Y-66425646D01*
X113045175Y-66399187D01*
X113069685Y-66362505D01*
X113132506Y-66299684D01*
X113200977Y-66253933D01*
X113219919Y-66238387D01*
X113235464Y-66219445D01*
X113247015Y-66197835D01*
X113254128Y-66174386D01*
X113256530Y-66150000D01*
X113583470Y-66150000D01*
X113585872Y-66174386D01*
X113592985Y-66197835D01*
X113604536Y-66219446D01*
X113620082Y-66238388D01*
X113639023Y-66253933D01*
X113707494Y-66299684D01*
X113770316Y-66362506D01*
X113816067Y-66430977D01*
X113831613Y-66449919D01*
X113850555Y-66465464D01*
X113872165Y-66477015D01*
X113895614Y-66484128D01*
X113920000Y-66486530D01*
X113944386Y-66484128D01*
X113967835Y-66477015D01*
X113989446Y-66465464D01*
X114008388Y-66449918D01*
X114023933Y-66430977D01*
X114069684Y-66362506D01*
X114132506Y-66299684D01*
X114200977Y-66253933D01*
X114219919Y-66238387D01*
X114235464Y-66219445D01*
X114247015Y-66197835D01*
X114254128Y-66174386D01*
X114256530Y-66150000D01*
X114583470Y-66150000D01*
X114585872Y-66174386D01*
X114592985Y-66197835D01*
X114604536Y-66219446D01*
X114620082Y-66238388D01*
X114639023Y-66253933D01*
X114707494Y-66299684D01*
X114770316Y-66362506D01*
X114816067Y-66430977D01*
X114831613Y-66449919D01*
X114850555Y-66465464D01*
X114872165Y-66477015D01*
X114895614Y-66484128D01*
X114920000Y-66486530D01*
X114944386Y-66484128D01*
X114967835Y-66477015D01*
X114989446Y-66465464D01*
X115008388Y-66449918D01*
X115023933Y-66430977D01*
X115069684Y-66362506D01*
X115132506Y-66299684D01*
X115200977Y-66253933D01*
X115219919Y-66238387D01*
X115235464Y-66219445D01*
X115247015Y-66197835D01*
X115254128Y-66174386D01*
X115256530Y-66150000D01*
X115583470Y-66150000D01*
X115585872Y-66174386D01*
X115592985Y-66197835D01*
X115604536Y-66219446D01*
X115620082Y-66238388D01*
X115639023Y-66253933D01*
X115707494Y-66299684D01*
X115770316Y-66362506D01*
X115816067Y-66430977D01*
X115831613Y-66449919D01*
X115850555Y-66465464D01*
X115872165Y-66477015D01*
X115895614Y-66484128D01*
X115920000Y-66486530D01*
X115944386Y-66484128D01*
X115967835Y-66477015D01*
X115989446Y-66465464D01*
X116008388Y-66449918D01*
X116023933Y-66430977D01*
X116069684Y-66362506D01*
X116132506Y-66299684D01*
X116200977Y-66253933D01*
X116219919Y-66238387D01*
X116235464Y-66219445D01*
X116247015Y-66197835D01*
X116254128Y-66174386D01*
X116256530Y-66150000D01*
X116583470Y-66150000D01*
X116585872Y-66174386D01*
X116592985Y-66197835D01*
X116604536Y-66219446D01*
X116620082Y-66238388D01*
X116639023Y-66253933D01*
X116707494Y-66299684D01*
X116770316Y-66362506D01*
X116816067Y-66430977D01*
X116831613Y-66449919D01*
X116850555Y-66465464D01*
X116872165Y-66477015D01*
X116895614Y-66484128D01*
X116920000Y-66486530D01*
X116944386Y-66484128D01*
X116967835Y-66477015D01*
X116989446Y-66465464D01*
X117008388Y-66449918D01*
X117023933Y-66430977D01*
X117069684Y-66362506D01*
X117132506Y-66299684D01*
X117200977Y-66253933D01*
X117219919Y-66238387D01*
X117235464Y-66219445D01*
X117247015Y-66197835D01*
X117254128Y-66174386D01*
X117256530Y-66150000D01*
X117254128Y-66125614D01*
X117247015Y-66102165D01*
X117235464Y-66080554D01*
X117219918Y-66061612D01*
X117200977Y-66046067D01*
X117132506Y-66000316D01*
X117069684Y-65937494D01*
X117023933Y-65869023D01*
X117008387Y-65850081D01*
X116989445Y-65834536D01*
X116967835Y-65822985D01*
X116944386Y-65815872D01*
X116920000Y-65813470D01*
X116895614Y-65815872D01*
X116872165Y-65822985D01*
X116850554Y-65834536D01*
X116831612Y-65850082D01*
X116816067Y-65869023D01*
X116770316Y-65937494D01*
X116707494Y-66000316D01*
X116639023Y-66046067D01*
X116620081Y-66061613D01*
X116604536Y-66080555D01*
X116592985Y-66102165D01*
X116585872Y-66125614D01*
X116583470Y-66150000D01*
X116256530Y-66150000D01*
X116254128Y-66125614D01*
X116247015Y-66102165D01*
X116235464Y-66080554D01*
X116219918Y-66061612D01*
X116200977Y-66046067D01*
X116132506Y-66000316D01*
X116069684Y-65937494D01*
X116023933Y-65869023D01*
X116008387Y-65850081D01*
X115989445Y-65834536D01*
X115967835Y-65822985D01*
X115944386Y-65815872D01*
X115920000Y-65813470D01*
X115895614Y-65815872D01*
X115872165Y-65822985D01*
X115850554Y-65834536D01*
X115831612Y-65850082D01*
X115816067Y-65869023D01*
X115770316Y-65937494D01*
X115707494Y-66000316D01*
X115639023Y-66046067D01*
X115620081Y-66061613D01*
X115604536Y-66080555D01*
X115592985Y-66102165D01*
X115585872Y-66125614D01*
X115583470Y-66150000D01*
X115256530Y-66150000D01*
X115254128Y-66125614D01*
X115247015Y-66102165D01*
X115235464Y-66080554D01*
X115219918Y-66061612D01*
X115200977Y-66046067D01*
X115132506Y-66000316D01*
X115069684Y-65937494D01*
X115023933Y-65869023D01*
X115008387Y-65850081D01*
X114989445Y-65834536D01*
X114967835Y-65822985D01*
X114944386Y-65815872D01*
X114920000Y-65813470D01*
X114895614Y-65815872D01*
X114872165Y-65822985D01*
X114850554Y-65834536D01*
X114831612Y-65850082D01*
X114816067Y-65869023D01*
X114770316Y-65937494D01*
X114707494Y-66000316D01*
X114639023Y-66046067D01*
X114620081Y-66061613D01*
X114604536Y-66080555D01*
X114592985Y-66102165D01*
X114585872Y-66125614D01*
X114583470Y-66150000D01*
X114256530Y-66150000D01*
X114254128Y-66125614D01*
X114247015Y-66102165D01*
X114235464Y-66080554D01*
X114219918Y-66061612D01*
X114200977Y-66046067D01*
X114132506Y-66000316D01*
X114069684Y-65937494D01*
X114023933Y-65869023D01*
X114008387Y-65850081D01*
X113989445Y-65834536D01*
X113967835Y-65822985D01*
X113944386Y-65815872D01*
X113920000Y-65813470D01*
X113895614Y-65815872D01*
X113872165Y-65822985D01*
X113850554Y-65834536D01*
X113831612Y-65850082D01*
X113816067Y-65869023D01*
X113770316Y-65937494D01*
X113707494Y-66000316D01*
X113639023Y-66046067D01*
X113620081Y-66061613D01*
X113604536Y-66080555D01*
X113592985Y-66102165D01*
X113585872Y-66125614D01*
X113583470Y-66150000D01*
X113256530Y-66150000D01*
X113254128Y-66125614D01*
X113247015Y-66102165D01*
X113235464Y-66080554D01*
X113219918Y-66061612D01*
X113200977Y-66046067D01*
X113132506Y-66000316D01*
X113069685Y-65937495D01*
X113020328Y-65863627D01*
X112986331Y-65781552D01*
X112969000Y-65694421D01*
X112969000Y-65605579D01*
X112986331Y-65518448D01*
X113020328Y-65436373D01*
X113069685Y-65362505D01*
X113132506Y-65299684D01*
X113200977Y-65253933D01*
X113219919Y-65238387D01*
X113235464Y-65219445D01*
X113247015Y-65197835D01*
X113254128Y-65174386D01*
X113256530Y-65150000D01*
X113583470Y-65150000D01*
X113585872Y-65174386D01*
X113592985Y-65197835D01*
X113604536Y-65219446D01*
X113620082Y-65238388D01*
X113639023Y-65253933D01*
X113707494Y-65299684D01*
X113770316Y-65362506D01*
X113816067Y-65430977D01*
X113831613Y-65449919D01*
X113850555Y-65465464D01*
X113872165Y-65477015D01*
X113895614Y-65484128D01*
X113920000Y-65486530D01*
X113944386Y-65484128D01*
X113967835Y-65477015D01*
X113989446Y-65465464D01*
X114008388Y-65449918D01*
X114023933Y-65430977D01*
X114069684Y-65362506D01*
X114132506Y-65299684D01*
X114200977Y-65253933D01*
X114219919Y-65238387D01*
X114235464Y-65219445D01*
X114247015Y-65197835D01*
X114254128Y-65174386D01*
X114256530Y-65150000D01*
X114583470Y-65150000D01*
X114585872Y-65174386D01*
X114592985Y-65197835D01*
X114604536Y-65219446D01*
X114620082Y-65238388D01*
X114639023Y-65253933D01*
X114707494Y-65299684D01*
X114770316Y-65362506D01*
X114816067Y-65430977D01*
X114831613Y-65449919D01*
X114850555Y-65465464D01*
X114872165Y-65477015D01*
X114895614Y-65484128D01*
X114920000Y-65486530D01*
X114944386Y-65484128D01*
X114967835Y-65477015D01*
X114989446Y-65465464D01*
X115008388Y-65449918D01*
X115023933Y-65430977D01*
X115069684Y-65362506D01*
X115132506Y-65299684D01*
X115200977Y-65253933D01*
X115219919Y-65238387D01*
X115235464Y-65219445D01*
X115247015Y-65197835D01*
X115254128Y-65174386D01*
X115256530Y-65150000D01*
X115583470Y-65150000D01*
X115585872Y-65174386D01*
X115592985Y-65197835D01*
X115604536Y-65219446D01*
X115620082Y-65238388D01*
X115639023Y-65253933D01*
X115707494Y-65299684D01*
X115770316Y-65362506D01*
X115816067Y-65430977D01*
X115831613Y-65449919D01*
X115850555Y-65465464D01*
X115872165Y-65477015D01*
X115895614Y-65484128D01*
X115920000Y-65486530D01*
X115944386Y-65484128D01*
X115967835Y-65477015D01*
X115989446Y-65465464D01*
X116008388Y-65449918D01*
X116023933Y-65430977D01*
X116069684Y-65362506D01*
X116132506Y-65299684D01*
X116200977Y-65253933D01*
X116219919Y-65238387D01*
X116235464Y-65219445D01*
X116247015Y-65197835D01*
X116254128Y-65174386D01*
X116256530Y-65150000D01*
X116583470Y-65150000D01*
X116585872Y-65174386D01*
X116592985Y-65197835D01*
X116604536Y-65219446D01*
X116620082Y-65238388D01*
X116639023Y-65253933D01*
X116707494Y-65299684D01*
X116770316Y-65362506D01*
X116816067Y-65430977D01*
X116831613Y-65449919D01*
X116850555Y-65465464D01*
X116872165Y-65477015D01*
X116895614Y-65484128D01*
X116920000Y-65486530D01*
X116944386Y-65484128D01*
X116967835Y-65477015D01*
X116989446Y-65465464D01*
X117008388Y-65449918D01*
X117023933Y-65430977D01*
X117069684Y-65362506D01*
X117132506Y-65299684D01*
X117200977Y-65253933D01*
X117219919Y-65238387D01*
X117235464Y-65219445D01*
X117247015Y-65197835D01*
X117254128Y-65174386D01*
X117256530Y-65150000D01*
X117254128Y-65125614D01*
X117247015Y-65102165D01*
X117235464Y-65080554D01*
X117219918Y-65061612D01*
X117200977Y-65046067D01*
X117132506Y-65000316D01*
X117069684Y-64937494D01*
X117023933Y-64869023D01*
X117008387Y-64850081D01*
X116989445Y-64834536D01*
X116967835Y-64822985D01*
X116944386Y-64815872D01*
X116920000Y-64813470D01*
X116895614Y-64815872D01*
X116872165Y-64822985D01*
X116850554Y-64834536D01*
X116831612Y-64850082D01*
X116816067Y-64869023D01*
X116770316Y-64937494D01*
X116707494Y-65000316D01*
X116639023Y-65046067D01*
X116620081Y-65061613D01*
X116604536Y-65080555D01*
X116592985Y-65102165D01*
X116585872Y-65125614D01*
X116583470Y-65150000D01*
X116256530Y-65150000D01*
X116254128Y-65125614D01*
X116247015Y-65102165D01*
X116235464Y-65080554D01*
X116219918Y-65061612D01*
X116200977Y-65046067D01*
X116132506Y-65000316D01*
X116069684Y-64937494D01*
X116023933Y-64869023D01*
X116008387Y-64850081D01*
X115989445Y-64834536D01*
X115967835Y-64822985D01*
X115944386Y-64815872D01*
X115920000Y-64813470D01*
X115895614Y-64815872D01*
X115872165Y-64822985D01*
X115850554Y-64834536D01*
X115831612Y-64850082D01*
X115816067Y-64869023D01*
X115770316Y-64937494D01*
X115707494Y-65000316D01*
X115639023Y-65046067D01*
X115620081Y-65061613D01*
X115604536Y-65080555D01*
X115592985Y-65102165D01*
X115585872Y-65125614D01*
X115583470Y-65150000D01*
X115256530Y-65150000D01*
X115254128Y-65125614D01*
X115247015Y-65102165D01*
X115235464Y-65080554D01*
X115219918Y-65061612D01*
X115200977Y-65046067D01*
X115132506Y-65000316D01*
X115069684Y-64937494D01*
X115023933Y-64869023D01*
X115008387Y-64850081D01*
X114989445Y-64834536D01*
X114967835Y-64822985D01*
X114944386Y-64815872D01*
X114920000Y-64813470D01*
X114895614Y-64815872D01*
X114872165Y-64822985D01*
X114850554Y-64834536D01*
X114831612Y-64850082D01*
X114816067Y-64869023D01*
X114770316Y-64937494D01*
X114707494Y-65000316D01*
X114639023Y-65046067D01*
X114620081Y-65061613D01*
X114604536Y-65080555D01*
X114592985Y-65102165D01*
X114585872Y-65125614D01*
X114583470Y-65150000D01*
X114256530Y-65150000D01*
X114254128Y-65125614D01*
X114247015Y-65102165D01*
X114235464Y-65080554D01*
X114219918Y-65061612D01*
X114200977Y-65046067D01*
X114132506Y-65000316D01*
X114069684Y-64937494D01*
X114023933Y-64869023D01*
X114008387Y-64850081D01*
X113989445Y-64834536D01*
X113967835Y-64822985D01*
X113944386Y-64815872D01*
X113920000Y-64813470D01*
X113895614Y-64815872D01*
X113872165Y-64822985D01*
X113850554Y-64834536D01*
X113831612Y-64850082D01*
X113816067Y-64869023D01*
X113770316Y-64937494D01*
X113707494Y-65000316D01*
X113639023Y-65046067D01*
X113620081Y-65061613D01*
X113604536Y-65080555D01*
X113592985Y-65102165D01*
X113585872Y-65125614D01*
X113583470Y-65150000D01*
X113256530Y-65150000D01*
X113254128Y-65125614D01*
X113247015Y-65102165D01*
X113235464Y-65080554D01*
X113219918Y-65061612D01*
X113200977Y-65046067D01*
X113132506Y-65000316D01*
X113069685Y-64937495D01*
X113020328Y-64863627D01*
X112986331Y-64781552D01*
X112969000Y-64694421D01*
X112969000Y-64605579D01*
X112986331Y-64518448D01*
X113020328Y-64436373D01*
X113069685Y-64362505D01*
X113132506Y-64299684D01*
X113200977Y-64253933D01*
X113219919Y-64238387D01*
X113235464Y-64219445D01*
X113247015Y-64197835D01*
X113254128Y-64174386D01*
X113256530Y-64150000D01*
X113583470Y-64150000D01*
X113585872Y-64174386D01*
X113592985Y-64197835D01*
X113604536Y-64219446D01*
X113620082Y-64238388D01*
X113639023Y-64253933D01*
X113707494Y-64299684D01*
X113770316Y-64362506D01*
X113816067Y-64430977D01*
X113831613Y-64449919D01*
X113850555Y-64465464D01*
X113872165Y-64477015D01*
X113895614Y-64484128D01*
X113920000Y-64486530D01*
X113944386Y-64484128D01*
X113967835Y-64477015D01*
X113989446Y-64465464D01*
X114008388Y-64449918D01*
X114023933Y-64430977D01*
X114069684Y-64362506D01*
X114132506Y-64299684D01*
X114200977Y-64253933D01*
X114219919Y-64238387D01*
X114235464Y-64219445D01*
X114247015Y-64197835D01*
X114254128Y-64174386D01*
X114256530Y-64150000D01*
X114583470Y-64150000D01*
X114585872Y-64174386D01*
X114592985Y-64197835D01*
X114604536Y-64219446D01*
X114620082Y-64238388D01*
X114639023Y-64253933D01*
X114707494Y-64299684D01*
X114770316Y-64362506D01*
X114816067Y-64430977D01*
X114831613Y-64449919D01*
X114850555Y-64465464D01*
X114872165Y-64477015D01*
X114895614Y-64484128D01*
X114920000Y-64486530D01*
X114944386Y-64484128D01*
X114967835Y-64477015D01*
X114989446Y-64465464D01*
X115008388Y-64449918D01*
X115023933Y-64430977D01*
X115069684Y-64362506D01*
X115132506Y-64299684D01*
X115200977Y-64253933D01*
X115219919Y-64238387D01*
X115235464Y-64219445D01*
X115247015Y-64197835D01*
X115254128Y-64174386D01*
X115256530Y-64150000D01*
X115583470Y-64150000D01*
X115585872Y-64174386D01*
X115592985Y-64197835D01*
X115604536Y-64219446D01*
X115620082Y-64238388D01*
X115639023Y-64253933D01*
X115707494Y-64299684D01*
X115770316Y-64362506D01*
X115816067Y-64430977D01*
X115831613Y-64449919D01*
X115850555Y-64465464D01*
X115872165Y-64477015D01*
X115895614Y-64484128D01*
X115920000Y-64486530D01*
X115944386Y-64484128D01*
X115967835Y-64477015D01*
X115989446Y-64465464D01*
X116008388Y-64449918D01*
X116023933Y-64430977D01*
X116069684Y-64362506D01*
X116132506Y-64299684D01*
X116200977Y-64253933D01*
X116219919Y-64238387D01*
X116235464Y-64219445D01*
X116247015Y-64197835D01*
X116254128Y-64174386D01*
X116256530Y-64150000D01*
X116583470Y-64150000D01*
X116585872Y-64174386D01*
X116592985Y-64197835D01*
X116604536Y-64219446D01*
X116620082Y-64238388D01*
X116639023Y-64253933D01*
X116707494Y-64299684D01*
X116770316Y-64362506D01*
X116816067Y-64430977D01*
X116831613Y-64449919D01*
X116850555Y-64465464D01*
X116872165Y-64477015D01*
X116895614Y-64484128D01*
X116920000Y-64486530D01*
X116944386Y-64484128D01*
X116967835Y-64477015D01*
X116989446Y-64465464D01*
X117008388Y-64449918D01*
X117023933Y-64430977D01*
X117069684Y-64362506D01*
X117132506Y-64299684D01*
X117200977Y-64253933D01*
X117219919Y-64238387D01*
X117235464Y-64219445D01*
X117247015Y-64197835D01*
X117254128Y-64174386D01*
X117256530Y-64150000D01*
X117254128Y-64125614D01*
X117247015Y-64102165D01*
X117235464Y-64080554D01*
X117219918Y-64061612D01*
X117200977Y-64046067D01*
X117132506Y-64000316D01*
X117069684Y-63937494D01*
X117023933Y-63869023D01*
X117008387Y-63850081D01*
X116989445Y-63834536D01*
X116967835Y-63822985D01*
X116944386Y-63815872D01*
X116920000Y-63813470D01*
X116895614Y-63815872D01*
X116872165Y-63822985D01*
X116850554Y-63834536D01*
X116831612Y-63850082D01*
X116816067Y-63869023D01*
X116770316Y-63937494D01*
X116707494Y-64000316D01*
X116639023Y-64046067D01*
X116620081Y-64061613D01*
X116604536Y-64080555D01*
X116592985Y-64102165D01*
X116585872Y-64125614D01*
X116583470Y-64150000D01*
X116256530Y-64150000D01*
X116254128Y-64125614D01*
X116247015Y-64102165D01*
X116235464Y-64080554D01*
X116219918Y-64061612D01*
X116200977Y-64046067D01*
X116132506Y-64000316D01*
X116069684Y-63937494D01*
X116023933Y-63869023D01*
X116008387Y-63850081D01*
X115989445Y-63834536D01*
X115967835Y-63822985D01*
X115944386Y-63815872D01*
X115920000Y-63813470D01*
X115895614Y-63815872D01*
X115872165Y-63822985D01*
X115850554Y-63834536D01*
X115831612Y-63850082D01*
X115816067Y-63869023D01*
X115770316Y-63937494D01*
X115707494Y-64000316D01*
X115639023Y-64046067D01*
X115620081Y-64061613D01*
X115604536Y-64080555D01*
X115592985Y-64102165D01*
X115585872Y-64125614D01*
X115583470Y-64150000D01*
X115256530Y-64150000D01*
X115254128Y-64125614D01*
X115247015Y-64102165D01*
X115235464Y-64080554D01*
X115219918Y-64061612D01*
X115200977Y-64046067D01*
X115132506Y-64000316D01*
X115069684Y-63937494D01*
X115023933Y-63869023D01*
X115008387Y-63850081D01*
X114989445Y-63834536D01*
X114967835Y-63822985D01*
X114944386Y-63815872D01*
X114920000Y-63813470D01*
X114895614Y-63815872D01*
X114872165Y-63822985D01*
X114850554Y-63834536D01*
X114831612Y-63850082D01*
X114816067Y-63869023D01*
X114770316Y-63937494D01*
X114707494Y-64000316D01*
X114639023Y-64046067D01*
X114620081Y-64061613D01*
X114604536Y-64080555D01*
X114592985Y-64102165D01*
X114585872Y-64125614D01*
X114583470Y-64150000D01*
X114256530Y-64150000D01*
X114254128Y-64125614D01*
X114247015Y-64102165D01*
X114235464Y-64080554D01*
X114219918Y-64061612D01*
X114200977Y-64046067D01*
X114132506Y-64000316D01*
X114069684Y-63937494D01*
X114023933Y-63869023D01*
X114008387Y-63850081D01*
X113989445Y-63834536D01*
X113967835Y-63822985D01*
X113944386Y-63815872D01*
X113920000Y-63813470D01*
X113895614Y-63815872D01*
X113872165Y-63822985D01*
X113850554Y-63834536D01*
X113831612Y-63850082D01*
X113816067Y-63869023D01*
X113770316Y-63937494D01*
X113707494Y-64000316D01*
X113639023Y-64046067D01*
X113620081Y-64061613D01*
X113604536Y-64080555D01*
X113592985Y-64102165D01*
X113585872Y-64125614D01*
X113583470Y-64150000D01*
X113256530Y-64150000D01*
X113254128Y-64125614D01*
X113247015Y-64102165D01*
X113235464Y-64080554D01*
X113219918Y-64061612D01*
X113200977Y-64046067D01*
X113132506Y-64000316D01*
X113069685Y-63937495D01*
X113020328Y-63863627D01*
X112986331Y-63781552D01*
X112969000Y-63694421D01*
X112969000Y-63605579D01*
X112986331Y-63518448D01*
X113020328Y-63436373D01*
X113069685Y-63362505D01*
X113132505Y-63299685D01*
X113169187Y-63275175D01*
X113206371Y-63250329D01*
X113206373Y-63250328D01*
X113288448Y-63216331D01*
X113375579Y-63199000D01*
X113464421Y-63199000D01*
X113551552Y-63216331D01*
G37*
G36*
X138144653Y-66102165D02*
G01*
X138302812Y-66133624D01*
X138466784Y-66201544D01*
X138614354Y-66300147D01*
X138739853Y-66425646D01*
X138838456Y-66573216D01*
X138906376Y-66737188D01*
X138941000Y-66911259D01*
X138941000Y-67088741D01*
X138906376Y-67262812D01*
X138838456Y-67426784D01*
X138739853Y-67574354D01*
X138614354Y-67699853D01*
X138466784Y-67798456D01*
X138302812Y-67866376D01*
X138153512Y-67896073D01*
X138128742Y-67901000D01*
X137951258Y-67901000D01*
X137926488Y-67896073D01*
X137777188Y-67866376D01*
X137613216Y-67798456D01*
X137465646Y-67699853D01*
X137340147Y-67574354D01*
X137241544Y-67426784D01*
X137173624Y-67262812D01*
X137139000Y-67088741D01*
X137139000Y-66911259D01*
X137173624Y-66737188D01*
X137241544Y-66573216D01*
X137340147Y-66425646D01*
X137465646Y-66300147D01*
X137613216Y-66201544D01*
X137777188Y-66133624D01*
X137935347Y-66102165D01*
X137951258Y-66099000D01*
X138128742Y-66099000D01*
X138144653Y-66102165D01*
G37*
G36*
X136401000Y-67901000D02*
G01*
X134599000Y-67901000D01*
X134599000Y-66099000D01*
X136401000Y-66099000D01*
X136401000Y-67901000D01*
G37*
G36*
X142883642Y-64779781D02*
G01*
X143029414Y-64840162D01*
X143029416Y-64840163D01*
X143160608Y-64927822D01*
X143272178Y-65039392D01*
X143314121Y-65102165D01*
X143359838Y-65170586D01*
X143420219Y-65316358D01*
X143451000Y-65471107D01*
X143451000Y-65628893D01*
X143420219Y-65783642D01*
X143387088Y-65863627D01*
X143359837Y-65929416D01*
X143272178Y-66060608D01*
X143160608Y-66172178D01*
X143029416Y-66259837D01*
X143029415Y-66259838D01*
X143029414Y-66259838D01*
X142883642Y-66320219D01*
X142728893Y-66351000D01*
X142571107Y-66351000D01*
X142416358Y-66320219D01*
X142270586Y-66259838D01*
X142270585Y-66259838D01*
X142270584Y-66259837D01*
X142139392Y-66172178D01*
X142027822Y-66060608D01*
X141940163Y-65929416D01*
X141912912Y-65863627D01*
X141879781Y-65783642D01*
X141849000Y-65628893D01*
X141849000Y-65471107D01*
X141879781Y-65316358D01*
X141940162Y-65170586D01*
X141985879Y-65102165D01*
X142027822Y-65039392D01*
X142139392Y-64927822D01*
X142270584Y-64840163D01*
X142270586Y-64840162D01*
X142416358Y-64779781D01*
X142571107Y-64749000D01*
X142728893Y-64749000D01*
X142883642Y-64779781D01*
G37*
G36*
X145383642Y-64779781D02*
G01*
X145529414Y-64840162D01*
X145529416Y-64840163D01*
X145660608Y-64927822D01*
X145772178Y-65039392D01*
X145814121Y-65102165D01*
X145859838Y-65170586D01*
X145920219Y-65316358D01*
X145951000Y-65471107D01*
X145951000Y-65628893D01*
X145920219Y-65783642D01*
X145887088Y-65863627D01*
X145859837Y-65929416D01*
X145772178Y-66060608D01*
X145660608Y-66172178D01*
X145529416Y-66259837D01*
X145529415Y-66259838D01*
X145529414Y-66259838D01*
X145383642Y-66320219D01*
X145228893Y-66351000D01*
X145071107Y-66351000D01*
X144916358Y-66320219D01*
X144770586Y-66259838D01*
X144770585Y-66259838D01*
X144770584Y-66259837D01*
X144639392Y-66172178D01*
X144527822Y-66060608D01*
X144440163Y-65929416D01*
X144412912Y-65863627D01*
X144379781Y-65783642D01*
X144349000Y-65628893D01*
X144349000Y-65471107D01*
X144379781Y-65316358D01*
X144440162Y-65170586D01*
X144485879Y-65102165D01*
X144527822Y-65039392D01*
X144639392Y-64927822D01*
X144770584Y-64840163D01*
X144770586Y-64840162D01*
X144916358Y-64779781D01*
X145071107Y-64749000D01*
X145228893Y-64749000D01*
X145383642Y-64779781D01*
G37*
G36*
X145383642Y-62779781D02*
G01*
X145529414Y-62840162D01*
X145529416Y-62840163D01*
X145660608Y-62927822D01*
X145772178Y-63039392D01*
X145859837Y-63170584D01*
X145859838Y-63170586D01*
X145920219Y-63316358D01*
X145951000Y-63471107D01*
X145951000Y-63628893D01*
X145920219Y-63783642D01*
X145887088Y-63863627D01*
X145859837Y-63929416D01*
X145772178Y-64060608D01*
X145660608Y-64172178D01*
X145529416Y-64259837D01*
X145529415Y-64259838D01*
X145529414Y-64259838D01*
X145383642Y-64320219D01*
X145228893Y-64351000D01*
X145071107Y-64351000D01*
X144916358Y-64320219D01*
X144770586Y-64259838D01*
X144770585Y-64259838D01*
X144770584Y-64259837D01*
X144639392Y-64172178D01*
X144527822Y-64060608D01*
X144440163Y-63929416D01*
X144412912Y-63863627D01*
X144379781Y-63783642D01*
X144349000Y-63628893D01*
X144349000Y-63471107D01*
X144379781Y-63316358D01*
X144440162Y-63170586D01*
X144440163Y-63170584D01*
X144527822Y-63039392D01*
X144639392Y-62927822D01*
X144770584Y-62840163D01*
X144770586Y-62840162D01*
X144916358Y-62779781D01*
X145071107Y-62749000D01*
X145228893Y-62749000D01*
X145383642Y-62779781D01*
G37*
G36*
X142883642Y-62779781D02*
G01*
X143029414Y-62840162D01*
X143029416Y-62840163D01*
X143160608Y-62927822D01*
X143272178Y-63039392D01*
X143359837Y-63170584D01*
X143359838Y-63170586D01*
X143420219Y-63316358D01*
X143451000Y-63471107D01*
X143451000Y-63628893D01*
X143420219Y-63783642D01*
X143387088Y-63863627D01*
X143359837Y-63929416D01*
X143272178Y-64060608D01*
X143160608Y-64172178D01*
X143029416Y-64259837D01*
X143029415Y-64259838D01*
X143029414Y-64259838D01*
X142883642Y-64320219D01*
X142728893Y-64351000D01*
X142571107Y-64351000D01*
X142416358Y-64320219D01*
X142270586Y-64259838D01*
X142270585Y-64259838D01*
X142270584Y-64259837D01*
X142139392Y-64172178D01*
X142027822Y-64060608D01*
X141940163Y-63929416D01*
X141912912Y-63863627D01*
X141879781Y-63783642D01*
X141849000Y-63628893D01*
X141849000Y-63471107D01*
X141879781Y-63316358D01*
X141940162Y-63170586D01*
X141940163Y-63170584D01*
X142027822Y-63039392D01*
X142139392Y-62927822D01*
X142270584Y-62840163D01*
X142270586Y-62840162D01*
X142416358Y-62779781D01*
X142571107Y-62749000D01*
X142728893Y-62749000D01*
X142883642Y-62779781D01*
G37*
G36*
X147206564Y-60039389D02*
G01*
X147397833Y-60118615D01*
X147397835Y-60118616D01*
X147569973Y-60233635D01*
X147716365Y-60380027D01*
X147831385Y-60552167D01*
X147910611Y-60743436D01*
X147951000Y-60946484D01*
X147951000Y-61153516D01*
X147910611Y-61356564D01*
X147831385Y-61547833D01*
X147831384Y-61547835D01*
X147716365Y-61719973D01*
X147569973Y-61866365D01*
X147397835Y-61981384D01*
X147397834Y-61981385D01*
X147397833Y-61981385D01*
X147206564Y-62060611D01*
X147003516Y-62101000D01*
X146796484Y-62101000D01*
X146593436Y-62060611D01*
X146402167Y-61981385D01*
X146402166Y-61981385D01*
X146402165Y-61981384D01*
X146230027Y-61866365D01*
X146083635Y-61719973D01*
X145968616Y-61547835D01*
X145968615Y-61547833D01*
X145889389Y-61356564D01*
X145849000Y-61153516D01*
X145849000Y-60946484D01*
X145889389Y-60743436D01*
X145968615Y-60552167D01*
X146083635Y-60380027D01*
X146230027Y-60233635D01*
X146402165Y-60118616D01*
X146402167Y-60118615D01*
X146593436Y-60039389D01*
X146796484Y-59999000D01*
X147003516Y-59999000D01*
X147206564Y-60039389D01*
G37*
G36*
X152178824Y-50456087D02*
G01*
X152242112Y-50475286D01*
X152300450Y-50506468D01*
X152351576Y-50548425D01*
X152393533Y-50599551D01*
X152424715Y-50657889D01*
X152443914Y-50721177D01*
X152451001Y-50793138D01*
X152451001Y-51706862D01*
X152443914Y-51778823D01*
X152424715Y-51842111D01*
X152393533Y-51900449D01*
X152351576Y-51951575D01*
X152300450Y-51993532D01*
X152242112Y-52024714D01*
X152178824Y-52043913D01*
X152106863Y-52051000D01*
X150476000Y-52051000D01*
X150451614Y-52053402D01*
X150428165Y-52060515D01*
X150406554Y-52072066D01*
X150387612Y-52087611D01*
X150372067Y-52106553D01*
X150360516Y-52128164D01*
X150353403Y-52151613D01*
X150351001Y-52175999D01*
X150351001Y-53324001D01*
X150353403Y-53348387D01*
X150360516Y-53371836D01*
X150372067Y-53393447D01*
X150387612Y-53412389D01*
X150406554Y-53427934D01*
X150428165Y-53439485D01*
X150451614Y-53446598D01*
X150476000Y-53449000D01*
X152106863Y-53449000D01*
X152178824Y-53456087D01*
X152242112Y-53475286D01*
X152300450Y-53506468D01*
X152351576Y-53548425D01*
X152393533Y-53599551D01*
X152424715Y-53657889D01*
X152443914Y-53721177D01*
X152451001Y-53793138D01*
X152451001Y-54706862D01*
X152443914Y-54778823D01*
X152424715Y-54842111D01*
X152393533Y-54900449D01*
X152351576Y-54951575D01*
X152300450Y-54993532D01*
X152242112Y-55024714D01*
X152178824Y-55043913D01*
X152106863Y-55051000D01*
X149249001Y-55051000D01*
X149249001Y-50449000D01*
X152106863Y-50449000D01*
X152178824Y-50456087D01*
G37*
G36*
X146706565Y-50989389D02*
G01*
X146897834Y-51068615D01*
X146897836Y-51068616D01*
X147069974Y-51183635D01*
X147216366Y-51330027D01*
X147331386Y-51502167D01*
X147410612Y-51693436D01*
X147451001Y-51896484D01*
X147451001Y-52103516D01*
X147410612Y-52306564D01*
X147331386Y-52497833D01*
X147331385Y-52497835D01*
X147216366Y-52669973D01*
X147069974Y-52816365D01*
X146897836Y-52931384D01*
X146897835Y-52931385D01*
X146897834Y-52931385D01*
X146706565Y-53010611D01*
X146503517Y-53051000D01*
X146296485Y-53051000D01*
X146093437Y-53010611D01*
X145902168Y-52931385D01*
X145902167Y-52931385D01*
X145902166Y-52931384D01*
X145730028Y-52816365D01*
X145583636Y-52669973D01*
X145468617Y-52497835D01*
X145468616Y-52497833D01*
X145389390Y-52306564D01*
X145349001Y-52103516D01*
X145349001Y-51896484D01*
X145389390Y-51693436D01*
X145468616Y-51502167D01*
X145583636Y-51330027D01*
X145730028Y-51183635D01*
X145902166Y-51068616D01*
X145902168Y-51068615D01*
X146093437Y-50989389D01*
X146296485Y-50949000D01*
X146503517Y-50949000D01*
X146706565Y-50989389D01*
G37*
G36*
X152178824Y-42456087D02*
G01*
X152242112Y-42475286D01*
X152300450Y-42506468D01*
X152351576Y-42548425D01*
X152393533Y-42599551D01*
X152424715Y-42657889D01*
X152443914Y-42721177D01*
X152451001Y-42793138D01*
X152451001Y-43706862D01*
X152443914Y-43778823D01*
X152424715Y-43842111D01*
X152393533Y-43900449D01*
X152351576Y-43951575D01*
X152300450Y-43993532D01*
X152242112Y-44024714D01*
X152178824Y-44043913D01*
X152106863Y-44051000D01*
X150476000Y-44051000D01*
X150451614Y-44053402D01*
X150428165Y-44060515D01*
X150406554Y-44072066D01*
X150387612Y-44087611D01*
X150372067Y-44106553D01*
X150360516Y-44128164D01*
X150353403Y-44151613D01*
X150351001Y-44175999D01*
X150351001Y-45324001D01*
X150353403Y-45348387D01*
X150360516Y-45371836D01*
X150372067Y-45393447D01*
X150387612Y-45412389D01*
X150406554Y-45427934D01*
X150428165Y-45439485D01*
X150451614Y-45446598D01*
X150476000Y-45449000D01*
X152106863Y-45449000D01*
X152178824Y-45456087D01*
X152242112Y-45475286D01*
X152300450Y-45506468D01*
X152351576Y-45548425D01*
X152393533Y-45599551D01*
X152424715Y-45657889D01*
X152443914Y-45721177D01*
X152451001Y-45793138D01*
X152451001Y-46706862D01*
X152443914Y-46778823D01*
X152424715Y-46842111D01*
X152393533Y-46900449D01*
X152351576Y-46951575D01*
X152300450Y-46993532D01*
X152242112Y-47024714D01*
X152178824Y-47043913D01*
X152106863Y-47051000D01*
X149249001Y-47051000D01*
X149249001Y-42449000D01*
X152106863Y-42449000D01*
X152178824Y-42456087D01*
G37*
G36*
X146706565Y-44489389D02*
G01*
X146897834Y-44568615D01*
X146897836Y-44568616D01*
X147069974Y-44683635D01*
X147216366Y-44830027D01*
X147331386Y-45002167D01*
X147410612Y-45193436D01*
X147451001Y-45396484D01*
X147451001Y-45603516D01*
X147410612Y-45806564D01*
X147392827Y-45849500D01*
X147331385Y-45997835D01*
X147216366Y-46169973D01*
X147069974Y-46316365D01*
X146897836Y-46431384D01*
X146897835Y-46431385D01*
X146897834Y-46431385D01*
X146706565Y-46510611D01*
X146503517Y-46551000D01*
X146296485Y-46551000D01*
X146093437Y-46510611D01*
X145902168Y-46431385D01*
X145902167Y-46431385D01*
X145902166Y-46431384D01*
X145730028Y-46316365D01*
X145583636Y-46169973D01*
X145468617Y-45997835D01*
X145407175Y-45849500D01*
X145389390Y-45806564D01*
X145349001Y-45603516D01*
X145349001Y-45396484D01*
X145389390Y-45193436D01*
X145468616Y-45002167D01*
X145583636Y-44830027D01*
X145730028Y-44683635D01*
X145902166Y-44568616D01*
X145902168Y-44568615D01*
X146093437Y-44489389D01*
X146296485Y-44449000D01*
X146503517Y-44449000D01*
X146706565Y-44489389D01*
G37*
M02*
