M48
; DRILL file {KiCad 5.1.5+dfsg1-2build2} date Do 17 Dez 2020 19:44:15 CET
; FORMAT={-:-/ absolute / inch / decimal}
; #@! TF.CreationDate,2020-12-17T19:44:15+01:00
; #@! TF.GenerationSoftware,Kicad,Pcbnew,5.1.5+dfsg1-2build2
; #@! TF.FileFunction,Plated,1,2,PTH
FMAT,2
INCH
T1C0.0118
T2C0.0157
T3C0.0236
T4C0.0315
T5C0.0394
T6C0.0433
T7C0.0512
%
G90
G05
T1
X3.9764Y-3.2677
X3.9764Y-3.3858
X3.9764Y-3.5039
X3.9764Y-3.622
X3.9764Y-3.7402
X3.9764Y-3.8583
X3.9764Y-3.9764
X3.9764Y-4.0945
X3.9764Y-4.2126
X3.9764Y-4.3307
X3.9764Y-4.4488
X3.9764Y-4.5669
X3.9764Y-4.685
X3.9764Y-4.8031
X3.9764Y-5.315
X3.9764Y-5.4331
X4.0157Y-4.8819
X4.0157Y-5.0
X4.0157Y-5.1181
X4.0157Y-5.2362
X4.0551Y-5.4724
X4.1732Y-5.4724
X4.2441Y-4.1378
X4.252Y-4.374
X4.252Y-4.6378
X4.252Y-5.5512
X4.2766Y-4.8967
X4.2835Y-3.937
X4.2874Y-2.0591
X4.2913Y-2.0079
X4.2913Y-2.3425
X4.2953Y-2.7638
X4.3189Y-4.9055
X4.3228Y-2.2087
X4.3228Y-2.8819
X4.3386Y-4.6457
X4.3543Y-3.7756
X4.3543Y-4.5472
X4.3661Y-4.5
X4.3661Y-4.7283
X4.374Y-2.2087
X4.374Y-2.9213
X4.378Y-4.3701
X4.3898Y-4.2126
X4.4094Y-2.0079
X4.4094Y-2.8031
X4.4252Y-5.4528
X4.4252Y-5.4724
X4.4449Y-3.4882
X4.4606Y-3.1535
X4.4606Y-3.685
X4.4803Y-3.0197
X4.4882Y-4.1929
X4.4921Y-2.315
X4.4961Y-3.9449
X4.5039Y-3.6024
X4.5236Y-5.1299
X4.5276Y-2.0079
X4.5276Y-5.3661
X4.5512Y-5.5236
X4.5551Y-2.7441
X4.563Y-2.4213
X4.5709Y-2.0669
X4.5709Y-2.1181
X4.5709Y-4.7756
X4.5945Y-4.5315
X4.5945Y-4.6142
X4.6024Y-4.2756
X4.6063Y-4.9134
X4.6299Y-3.9449
X4.6378Y-3.5906
X4.6417Y-4.7362
X4.6457Y-2.0079
X4.6575Y-5.2283
X4.6693Y-3.1299
X4.6732Y-2.3071
X4.685Y-5.4685
X4.7008Y-2.8268
X4.7047Y-3.7126
X4.7047Y-5.4488
X4.7205Y-2.5472
X4.7323Y-4.0472
X4.7362Y-3.9094
X4.7402Y-4.3583
X4.7441Y-4.1614
X4.752Y-3.7402
X4.7638Y-2.0079
X4.7835Y-3.1378
X4.7835Y-4.626
X4.8031Y-4.7874
X4.8071Y-2.4449
X4.8268Y-2.3307
X4.8386Y-2.685
X4.8425Y-5.5118
X4.8465Y-3.1378
X4.8819Y-2.0079
X4.8858Y-4.9055
X4.8976Y-3.1378
X4.906Y-2.4964
X4.9094Y-4.0709
X4.9134Y-3.5472
X4.9213Y-4.9606
X4.937Y-4.7795
X4.9409Y-5.4134
X4.9449Y-3.1378
X4.9488Y-2.6142
X4.9606Y-2.3898
X4.9606Y-4.622
X4.9606Y-5.1378
X4.9606Y-5.5118
X4.9724Y-3.9488
X4.9764Y-3.7559
X4.9803Y-2.3307
X4.9882Y-2.815
X4.9921Y-3.0669
X5.0Y-2.0079
X5.0157Y-2.689
X5.0197Y-2.4961
X5.0354Y-4.622
X5.0433Y-4.3583
X5.0433Y-4.7756
X5.0787Y-4.185
X5.0787Y-5.5118
X5.1063Y-5.4173
X5.1181Y-1.7717
X5.1181Y-1.8898
X5.1181Y-2.0079
X5.1181Y-4.0197
X5.122Y-4.5197
X5.126Y-2.7874
X5.1339Y-5.1575
X5.1378Y-2.5866
X5.1417Y-4.3898
X5.1575Y-5.5906
X5.1772Y-3.5787
X5.1811Y-4.1535
X5.1811Y-4.5197
X5.1969Y-1.6929
X5.2126Y-3.3701
X5.2165Y-4.8976
X5.2244Y-2.3189
X5.2362Y-4.1535
X5.2402Y-3.8858
X5.252Y-5.4213
X5.2559Y-4.937
X5.2638Y-2.2244
X5.2638Y-4.6969
X5.2638Y-4.7283
X5.2638Y-5.3031
X5.2717Y-5.0551
X5.2835Y-1.8543
X5.3031Y-2.8543
X5.3031Y-4.185
X5.3031Y-4.9213
X5.315Y-1.6929
X5.3386Y-4.5079
X5.3425Y-5.1575
X5.3622Y-4.9646
X5.3819Y-4.8425
X5.4134Y-4.5354
X5.4252Y-4.2362
X5.4252Y-4.3228
X5.4331Y-1.6929
X5.4331Y-4.0197
X5.4449Y-4.9173
X5.4488Y-2.7402
X5.4634Y-4.4055
X5.492Y-4.4054
X5.5Y-5.252
X5.5157Y-4.2323
X5.5157Y-4.3228
X5.5394Y-4.0472
X5.5451Y-4.4173
X5.5472Y-3.8898
X5.5472Y-4.5827
X5.5472Y-5.3228
X5.5512Y-1.6929
X5.5512Y-4.878
X5.5591Y-4.5118
X5.5945Y-4.1634
X5.5984Y-2.1575
X5.5984Y-2.2953
X5.5984Y-4.2402
X5.5984Y-4.374
X5.6024Y-5.1024
X5.6181Y-4.8307
X5.6181Y-4.9449
X5.6614Y-5.4409
X5.6693Y-1.6929
X5.6772Y-4.4488
X5.6811Y-5.2559
X5.6969Y-4.7638
X5.7008Y-3.0591
X5.7205Y-4.0433
X5.7323Y-4.252
X5.7598Y-2.252
X5.7717Y-4.248
X5.7717Y-4.2953
X5.7874Y-1.6929
X5.8071Y-4.5315
X5.8386Y-5.1732
X5.8465Y-5.2283
X5.8661Y-2.4016
X5.8661Y-2.9134
X5.8661Y-4.626
X5.8976Y-1.7205
X5.9449Y-2.4016
X5.9449Y-2.9134
X5.9843Y-2.2047
X5.9843Y-2.3228
X5.9843Y-2.9921
X5.9843Y-3.1102
X5.9843Y-3.2283
X5.9843Y-3.3465
X5.9843Y-3.4646
X5.9843Y-3.5827
X5.9843Y-3.7008
X5.9843Y-3.8189
X6.0236Y-3.8976
X6.0236Y-4.0157
X6.0236Y-4.1732
X6.0236Y-4.2913
X6.0236Y-4.4094
X6.0236Y-4.5276
X6.0236Y-4.6457
X6.0236Y-4.7638
X6.0236Y-4.8819
X6.0236Y-5.0
X6.0236Y-5.1181
X6.0236Y-5.2362
X6.0236Y-5.3543
X6.0236Y-5.4724
X6.0236Y-5.5906
X4.4654Y-2.5059
X4.4654Y-2.5453
X4.4654Y-2.5846
X4.4654Y-2.624
X4.4654Y-2.6634
X4.5047Y-2.5059
X4.5047Y-2.5453
X4.5047Y-2.5846
X4.5047Y-2.624
X4.5047Y-2.6634
X4.5441Y-2.5059
X4.5441Y-2.5453
X4.5441Y-2.5846
X4.5441Y-2.624
X4.5441Y-2.6634
X4.5835Y-2.5059
X4.5835Y-2.5453
X4.5835Y-2.5846
X4.5835Y-2.624
X4.5835Y-2.6634
X4.6228Y-2.5059
X4.6228Y-2.5453
X4.6228Y-2.5846
X4.6228Y-2.624
X4.6228Y-2.6634
X5.3445Y-4.685
X5.3819Y-4.6624
X5.3819Y-4.7077
X5.4193Y-4.685
X5.0768Y-4.685
X5.1142Y-4.6624
X5.1142Y-4.7077
X5.1516Y-4.685
T2
X4.1811Y-5.0157
X4.1811Y-5.0512
X4.1811Y-5.0866
X4.1811Y-5.2559
X4.1811Y-5.3268
X4.1811Y-5.3622
X4.1811Y-5.2913
X4.186Y-4.9813
X5.0354Y-4.9803
X5.0394Y-5.0157
X5.0394Y-5.0512
X5.0394Y-5.0866
X5.0394Y-5.2559
X5.0394Y-5.2913
X5.0394Y-5.3268
X5.0394Y-5.3622
X5.7717Y-4.9882
X5.7717Y-5.0433
X5.815Y-4.9882
X5.815Y-5.0433
X5.8583Y-4.9882
X5.8583Y-5.0433
T4
X5.6161Y-2.502
X5.6161Y-2.5807
X5.6161Y-2.6594
X5.6161Y-2.8169
X5.7146Y-2.502
X5.7146Y-2.5807
X5.7146Y-2.6594
X5.7146Y-2.8169
X5.1181Y-3.6831
X5.1969Y-3.0335
X5.1969Y-3.6831
X5.2756Y-3.6831
X5.3543Y-3.6831
X5.4331Y-3.0335
X5.4331Y-3.6831
X5.5118Y-3.6831
T5
X4.6299Y-5.6043
X4.7299Y-5.6043
X5.7638Y-1.7913
X5.7638Y-2.0472
X4.5354Y-4.378
X4.5354Y-4.478
X4.3425Y-3.2992
X4.4425Y-3.2992
X4.3252Y-5.6043
X4.4252Y-5.6043
X5.3346Y-2.6378
X5.4346Y-2.6378
X4.8189Y-4.378
X4.8189Y-4.478
X4.9803Y-4.278
X4.9803Y-4.378
X4.9803Y-4.478
X4.6535Y-4.378
X4.6535Y-4.478
T6
X5.5472Y-2.9154
X5.7835Y-2.4035
T7
X4.0315Y-4.5984
X4.1811Y-4.5
X4.1811Y-4.6969
X4.0315Y-4.1378
X4.1811Y-4.0394
X4.1811Y-4.2362
T3
G00X5.8591Y-4.1075
M15
G01X5.8157Y-4.1075
M16
G05
G00X5.8591Y-4.4476
M15
G01X5.8157Y-4.4476
M16
G05
G00X6.0173Y-4.1075
M15
G01X5.9858Y-4.1075
M16
G05
G00X6.0173Y-4.4476
M15
G01X5.9858Y-4.4476
M16
G05
T0
M30
